<?xml version="1.0" encoding="utf-8"?>
<!-- Generator: Adobe Illustrator 21.1.0, SVG Export Plug-In . SVG Version: 6.00 Build 0)  -->
<svg version="1.1" id="Layer_1" xmlns="http://www.w3.org/2000/svg" xmlns:xlink="http://www.w3.org/1999/xlink" x="0px" y="0px"
	 viewBox="0 0 30 30" style="enable-background:new 0 0 30 30;" xml:space="preserve">
<style type="text/css">
	.st0{fill:#FFFFFF;}
</style>
<g>
	<path class="st0" d="M6.2,16c-0.2,0-0.4,0-0.6,0.1L4,17.8l-1.6-1.6C2.2,16,2,16,1.8,16s-0.3,0.3-0.3,0.5v13C1.5,29.8,1.7,30,2,30h4
		c0.3,0,0.5-0.2,0.5-0.5v-13C6.5,16.3,6.4,16.1,6.2,16z"/>
	<path class="st0" d="M11.4,10.1c-0.2-0.2-0.5-0.2-0.7,0l-2,2c-0.1,0.1-0.1,0.2-0.1,0.4v17c0,0.3,0.2,0.5,0.5,0.5h4
		c0.3,0,0.5-0.2,0.5-0.5v-17c0-0.1-0.1-0.3-0.1-0.4L11.4,10.1z"/>
	<path class="st0" d="M18.4,8.1C18.2,8,18.1,8,18,8s-0.3,0.1-0.4,0.2l-2,3c-0.1,0.1-0.1,0.2-0.1,0.3v18c0,0.3,0.2,0.5,0.5,0.5h4
		c0.3,0,0.5-0.2,0.5-0.5v-19c0-0.1-0.1-0.3-0.1-0.4L18.4,8.1z"/>
	<path class="st0" d="M25.9,6.6c-0.1-0.1-0.2-0.1-0.4-0.1s-0.3,0.1-0.4,0.1l-2.5,2.5c-0.1,0.1-0.1,0.2-0.1,0.4v20
		c0,0.3,0.2,0.5,0.5,0.5h4c0.3,0,0.5-0.2,0.5-0.5v-21c0-0.1-0.1-0.3-0.1-0.4L25.9,6.6z"/>
	<path class="st0" d="M28.7,0.1C28.7,0,28.6,0,28.5,0H25c-0.2,0-0.4,0.1-0.5,0.3s0,0.4,0.1,0.5l1.6,1.6L21,7.8l-2.6-2.6
		C18.3,5,18.1,5,18,5s-0.3,0.1-0.4,0.2L14,9.8l-2.6-2.6C11.3,7,11.1,7,11,7s-0.3,0.1-0.4,0.2L4,14.8l-2.6-2.7
		c-0.2-0.1-0.6-0.1-0.8,0s-0.2,0.5,0,0.7l3,3C3.7,15.9,3.9,16,4,16s0.3-0.1,0.4-0.2L11,8.2l2.6,2.6C13.7,11,13.9,11,14,11
		s0.3-0.1,0.4-0.2L18,6.2l2.6,2.6c0.2,0.2,0.5,0.2,0.7,0L27,3.2l1.6,1.6C28.7,4.9,28.9,5,29,5c0.1,0,0.1,0,0.2,0
		c0.2-0.1,0.3-0.3,0.3-0.5v-4C29.5,0.1,29-0.1,28.7,0.1z"/>
</g>
</svg>
