<?xml version="1.0" encoding="utf-8"?>
<!-- Generator: Adobe Illustrator 21.1.0, SVG Export Plug-In . SVG Version: 6.00 Build 0)  -->
<svg version="1.1" id="Layer_1" xmlns="http://www.w3.org/2000/svg" xmlns:xlink="http://www.w3.org/1999/xlink" x="0px" y="0px"
	 viewBox="0 0 30 30" style="enable-background:new 0 0 30 30;" xml:space="preserve">
<style type="text/css">
	.st0{fill:#FFFFFF;}
</style>
<g id="Flag">
</g>
<g id="Umbrella">
</g>
<g id="Briefcase">
</g>
<g id="Box">
</g>
<g id="Magnet">
</g>
<g id="Percent">
</g>
<g id="Rocket">
</g>
<g id="Share">
</g>
<g id="Transmitter">
</g>
<g id="Record_2">
</g>
<g id="Record_1">
</g>
<g id="Anchor">
</g>
<g id="Airplane">
</g>
<g id="Car">
</g>
<g id="Newsfeed">
</g>
<g id="Wifi_Tethering">
</g>
<g id="No_Wifi_Tethering">
</g>
<g id="Bar_Chart_2">
</g>
<g id="Shop">
</g>
<g id="Alarm">
</g>
<g id="Sim_Card">
</g>
<g id="Radar">
</g>
<g id="Hand_2">
</g>
<g id="Palette">
</g>
<g id="Cake">
</g>
<g id="Blende">
</g>
<g id="Feather_Pen">
</g>
<g id="Ticket">
</g>
<g id="Medal">
</g>
<g id="Mouse_Pointer_1">
</g>
<g id="Mouse_Pointer_2">
</g>
<g id="Fingerprint">
	<g>
		<path class="st0" d="M8.4,2.2C10.2,1.4,12.2,1,14.5,1c2.3,0,4.3,0.4,6.1,1.2c0.1,0,0.1,0,0.2,0c0.2,0,0.4-0.1,0.5-0.3
			c0.1-0.3,0-0.5-0.2-0.7C19.1,0.4,16.9,0,14.5,0C12.1,0,9.9,0.4,8,1.3C7.7,1.4,7.6,1.7,7.7,2C7.9,2.2,8.2,2.3,8.4,2.2z"/>
		<path class="st0" d="M6,7.2c2.3-2.4,5.3-3.6,8.5-3.6c3.2,0,6.1,1.3,8.5,3.6c0.1,0.1,0.2,0.1,0.4,0.1c0.1,0,0.3,0,0.4-0.1
			c0.2-0.2,0.2-0.5,0-0.7c-2.5-2.6-5.7-3.9-9.2-3.9c-3.5,0-6.6,1.4-9.2,3.9C5.1,6.6,5.1,7,5.3,7.2C5.5,7.4,5.8,7.4,6,7.2z"/>
		<path class="st0" d="M14.5,5c-0.9,0-1.8,0.1-2.6,0.3c-0.3,0.1-0.4,0.3-0.4,0.6c0.1,0.3,0.3,0.4,0.6,0.4C12.9,6.1,13.7,6,14.5,6
			c5.3,0,9.6,4.3,9.6,9.6c0,0.3,0.2,0.5,0.5,0.5s0.5-0.2,0.5-0.5C25.1,9.8,20.3,5,14.5,5z"/>
		<path class="st0" d="M7.7,8.9c0.6-0.6,1.3-1.1,2-1.5C9.9,7.2,10,6.9,9.9,6.7C9.7,6.4,9.4,6.3,9.2,6.5C8.4,6.9,7.6,7.5,7,8.2
			c-1.9,2-3,4.6-3.1,7.4c0,0.3,0.2,0.5,0.5,0.5c0,0,0,0,0,0c0.3,0,0.5-0.2,0.5-0.5C5,13.1,5.9,10.7,7.7,8.9z"/>
		<path class="st0" d="M7.4,15.8c0-2,0.7-3.8,2.1-5.1c1.3-1.3,3.1-2.1,5-2.1c2,0,4,0.9,5.3,2.4c0.2,0.2,0.5,0.2,0.7,0
			c0.2-0.2,0.2-0.5,0-0.7c-1.5-1.8-3.8-2.8-6.1-2.8c-2.2,0-4.2,0.8-5.7,2.4c-1.5,1.5-2.3,3.6-2.3,5.9c0,1.4-0.4,3-1.2,4.6l-0.4,0.6
			c-0.1,0.2-0.1,0.5,0.2,0.7c0.1,0,0.2,0.1,0.2,0.1c0.2,0,0.3-0.1,0.4-0.3l0.4-0.7C7,19.1,7.4,17.4,7.4,15.8z"/>
		<path class="st0" d="M23,20.6c-0.4-1.8-0.4-3.6-0.5-4.6l0-0.3c0-0.9-0.2-1.8-0.5-2.7c-0.1-0.3-0.4-0.4-0.6-0.3
			c-0.3,0.1-0.4,0.4-0.3,0.6c0.3,0.8,0.4,1.5,0.4,2.4l0,0.3c0,1.1,0.1,2.9,0.5,4.9l0.7,2.4c0.1,0.2,0.3,0.4,0.5,0.4c0,0,0.1,0,0.1,0
			c0.3-0.1,0.4-0.4,0.3-0.6L23,20.6z"/>
		<path class="st0" d="M21.3,24c-1-3.3-1.2-6.9-1.3-8.3c0-3.1-2.5-5.5-5.5-5.5S9,12.6,9,15.7c0,0.7-0.1,4.2-2.8,8.1
			c-0.2,0.2-0.1,0.5,0.1,0.7c0.2,0.2,0.5,0.1,0.7-0.1c2.8-4,3-7.6,3-8.7c0-2.6,2-4.6,4.5-4.6c2.5,0,4.5,2,4.5,4.6
			c0,1.8,0.3,5.4,1.3,8.6l0.6,1.9c0.1,0.2,0.3,0.4,0.5,0.4c0,0,0.1,0,0.1,0c0.3-0.1,0.4-0.4,0.3-0.6L21.3,24z"/>
		<path class="st0" d="M17.5,15.6C17.5,15.6,17.5,15.6,17.5,15.6c0-1.7-1.4-3-3-3c-1.7,0-3,1.4-3,3c0,0.2,0.2,5.2-3.9,10.5
			c-0.2,0.2-0.1,0.5,0.1,0.7c0.2,0.2,0.5,0.1,0.7-0.1c4.3-5.5,4.1-10.9,4.1-11.1c0-1.1,0.9-2,2-2s2,0.9,2,2c0,0,0,0,0,0.1
			c0,0.9-0.1,7.2-4.9,13.5c-0.2,0.2-0.1,0.5,0.1,0.7C11.8,30,11.9,30,12,30c0.1,0,0.3-0.1,0.4-0.2C17.4,23.2,17.5,16.8,17.5,15.6z"
			/>
		<path class="st0" d="M14.2,18.6C14.2,18.6,14.3,18.6,14.2,18.6c0.3,0,0.5-0.2,0.6-0.4c0.3-1.6,0.2-2.6,0.2-2.6
			c0-0.3-0.3-0.5-0.5-0.5c-0.3,0-0.5,0.2-0.5,0.5c0,0,0,0.9-0.2,2.4C13.8,18.3,13.9,18.6,14.2,18.6z"/>
		<path class="st0" d="M13.9,20.2c-0.3-0.1-0.5,0.1-0.6,0.3c-0.8,2.7-2.1,5.2-3.9,7.4c-0.2,0.2-0.1,0.5,0.1,0.7
			c0.1,0.1,0.2,0.1,0.3,0.1c0.1,0,0.3-0.1,0.4-0.2c1.9-2.4,3.3-5,4.1-7.8C14.3,20.6,14.1,20.3,13.9,20.2z"/>
		<path class="st0" d="M19.1,25.3c-0.3-0.9-0.6-1.9-0.6-1.9c-0.1-0.2-0.2-0.3-0.5-0.4c-0.2,0-0.4,0.1-0.5,0.3c0,0-1.4,3.3-3,5.9
			c-0.1,0.2-0.1,0.5,0.2,0.7C14.8,30,14.9,30,15,30c0.2,0,0.3-0.1,0.4-0.2c1.1-1.7,2-3.6,2.6-4.8c0.1,0.2,0.1,0.4,0.2,0.6l0.8,2.4
			c0.1,0.3,0.4,0.4,0.6,0.3c0.3-0.1,0.4-0.4,0.3-0.6L19.1,25.3z"/>
	</g>
</g>
<g id="Earth">
</g>
</svg>
