<?xml version="1.0" encoding="utf-8"?>
<!-- Generator: Adobe Illustrator 21.1.0, SVG Export Plug-In . SVG Version: 6.00 Build 0)  -->
<svg version="1.1" id="Layer_1" xmlns="http://www.w3.org/2000/svg" xmlns:xlink="http://www.w3.org/1999/xlink" x="0px" y="0px"
	 viewBox="0 0 30 30" style="enable-background:new 0 0 30 30;" xml:space="preserve">
<style type="text/css">
	.st0{fill:#FFFFFF;}
</style>
<g>
	<g>
		<path class="st0" d="M29.8,22.1c-0.5-2.5-2.5-4.4-4.9-4.9c0.5,1,0.8,2.4,1,4C27.5,21.3,28.9,21.6,29.8,22.1z M24.9,21
			c-0.3-2.7-1-4-1.4-4s-1.1,1.4-1.4,4c0.5,0,0.9,0,1.4,0S24.4,21,24.9,21z M17.2,22.1c1-0.5,2.4-0.8,4-1c0.2-1.6,0.5-3,1-4
			C19.6,17.7,17.7,19.6,17.2,22.1z M23.5,25c0.5,0,1,0,1.5,0c0-0.5,0-0.9,0-1.5s0-1,0-1.5c-0.5,0-0.9,0-1.5,0s-1,0-1.5,0
			c0,0.5,0,0.9,0,1.5s0,1,0,1.5C22.5,25,23,25,23.5,25z M10,14.4c0,0.1-0.1,0.3-0.1,0.4l-1,1c-0.1,0.1-0.2,0.1-0.4,0.1
			s-0.3,0-0.4-0.1L7,14.6l-1.1,1.1c-0.2,0.2-0.5,0.2-0.7,0l-1-1C4.1,14.6,4,14.5,4,14.4V2.9l-3.6,1C0.1,4,0,4.2,0,4.4v21
			c0,0.2,0.1,0.4,0.4,0.5L14,29.8V0l-4,1.1V14.4z M11.9,21.7c-0.1,0.1-0.2,0.1-0.4,0.1s-0.3,0-0.4-0.1L10,20.6v3.8
			c0,0.3-0.2,0.5-0.5,0.5S9,24.7,9,24.4v-3.8l-1.1,1.1c-0.2,0.2-0.5,0.2-0.7,0C7,21.5,7,21.2,7.1,21l2-2c0,0,0.1-0.1,0.2-0.1
			c0.1-0.1,0.3-0.1,0.4,0c0.1,0,0.1,0.1,0.2,0.1l2,2C12,21.2,12,21.5,11.9,21.7z M22.1,26c0.3,2.7,1,4,1.4,4s1.1-1.4,1.4-4
			c-0.5,0-0.9,0-1.4,0S22.6,26,22.1,26z M24.9,29.8c2.5-0.5,4.4-2.5,4.9-4.9c-1,0.5-2.4,0.8-4,1C25.7,27.5,25.4,28.9,24.9,29.8z
			 M26,22.1c0,0.5,0,0.9,0,1.4s0,0.9,0,1.4c2.7-0.3,4-1,4-1.4S28.6,22.4,26,22.1z M17.2,24.9c0.5,2.5,2.5,4.4,4.9,4.9
			c-0.5-1-0.8-2.4-1-4C19.5,25.7,18.1,25.4,17.2,24.9z M23.5,15.9c1.7,0,3.3,0.6,4.7,1.7c0.1,0.1,0.4,0.1,0.5,0.1
			c0.2-0.1,0.3-0.3,0.3-0.5V4.4c0-0.2-0.1-0.4-0.4-0.5L15,0v20c0,0.5,0.4,0.9,0.9,0.9c0.4,0,0.7-0.2,0.8-0.5l0,0
			C17.8,17.7,20.4,15.9,23.5,15.9z M21,23.5c0-0.5,0-0.9,0-1.4c-2.7,0.3-4,1-4,1.4s1.4,1.1,4,1.4C21,24.4,21,24,21,23.5z"/>
	</g>
</g>
</svg>
