<?xml version="1.0" encoding="utf-8"?>
<!-- Generator: Adobe Illustrator 21.1.0, SVG Export Plug-In . SVG Version: 6.00 Build 0)  -->
<svg version="1.1" id="Layer_1" xmlns="http://www.w3.org/2000/svg" xmlns:xlink="http://www.w3.org/1999/xlink" x="0px" y="0px"
	 viewBox="0 0 30 30" style="enable-background:new 0 0 30 30;" xml:space="preserve">
<style type="text/css">
	.st0{fill:#FFFFFF;}
</style>
<path class="st0" d="M28,15.3C27.9,8,22,2.1,14.7,2C13.1,0.7,11.1,0,9,0C4,0,0,4,0,9c0,1.5,0.4,3.1,1.2,4.4C1.1,14.2,1,14.8,1,15.5
	C1,22.9,7.1,29,14.5,29c0.7,0,1.3-0.1,2.1-0.2C18,29.6,19.5,30,21,30c5,0,9-4,9-9C30,18.9,29.3,16.9,28,15.3z M14.5,25
	C9.9,25,7,22,7,20.4v-0.6c0-1,0.8-1.8,1.8-1.8c0.9,0,1.7,0.7,1.8,1.7c0.4,0.9,1.9,1.4,4,1.4c2.5,0,3.5-0.6,3.5-2.2
	c0-1.3-1.6-1.8-4.2-2.5c-3-0.8-6.8-1.8-6.8-5.8C7.1,5.6,11,5,14,5c3.4,0,7,1.3,7,4.2c0,1-0.8,1.8-1.8,1.8c-0.9,0-1.7-0.7-1.8-1.6
	c-0.5-0.6-2-1-3.6-1h-0.3c-2.1,0-3.1,0.3-3.1,2c0,1,2,1.6,4.1,2.2c3.3,0.9,7.5,2.1,7.5,6.1C22,22.6,19.1,25,14.5,25z"/>
</svg>
