<?xml version="1.0" encoding="utf-8"?>
<!-- Generator: Adobe Illustrator 21.1.0, SVG Export Plug-In . SVG Version: 6.00 Build 0)  -->
<svg version="1.1" id="Layer_1" xmlns="http://www.w3.org/2000/svg" xmlns:xlink="http://www.w3.org/1999/xlink" x="0px" y="0px"
	 viewBox="0 0 30 30" style="enable-background:new 0 0 30 30;" xml:space="preserve">
<style type="text/css">
	.st0{fill:#FFFFFF;}
</style>
<g>
	<g>
		<path class="st0" d="M13.5,24.8l-6.6,1.1l-0.2-1.6c0,0,0,0,0,0c0-0.1,0-0.1,0-0.2L4.1,4.9l21-3.8l2.3,12.5c0,0.3,0.3,0.5,0.6,0.4
			c0.3,0,0.5-0.3,0.4-0.6L26,0.4c0-0.3-0.3-0.5-0.6-0.4l-8.3,1.5c0,0,0,0,0,0L1.5,0C1.4,0,1.3,0,1.2,0.1C1.1,0.2,1,0.3,1,0.5l-1,23
			C0,23.7,0.2,24,0.4,24l5.3,0.7L6,26.6c0,0.1,0.1,0.3,0.2,0.3C6.3,27,6.4,27,6.5,27c0,0,0.1,0,0.1,0l7.1-1.2c0.3,0,0.5-0.3,0.4-0.6
			C14.1,24.9,13.8,24.7,13.5,24.8z M27.5,25c-1,0-1.8,0.5-2.2,1.3l-6.4-3.2c0.1-0.2,0.1-0.4,0.1-0.6s0-0.4-0.1-0.6l6.4-3.2
			c0.4,0.8,1.2,1.3,2.2,1.3c1.4,0,2.5-1.1,2.5-2.5S28.9,15,27.5,15S25,16.1,25,17.5c0,0.1,0,0.1,0,0.2L18.5,21c-0.5-0.6-1.2-1-2-1
			c-1.4,0-2.5,1.1-2.5,2.5s1.1,2.5,2.5,2.5c0.8,0,1.5-0.4,2-1l6.6,3.3c0,0.1,0,0.1,0,0.2c0,1.4,1.1,2.5,2.5,2.5s2.5-1.1,2.5-2.5
			S28.9,25,27.5,25z"/>
	</g>
</g>
</svg>
