<?xml version="1.0" encoding="iso-8859-1"?>
<!-- Generator: Adobe Illustrator 19.0.0, SVG Export Plug-In . SVG Version: 6.00 Build 0)  -->
<svg version="1.1" id="Layer_1" xmlns="http://www.w3.org/2000/svg" xmlns:xlink="http://www.w3.org/1999/xlink" x="0px" y="0px"
	 viewBox="0 0 30 30" style="enable-background:new 0 0 30 30;" xml:space="preserve">
<g>
	<g>
		<path d="M19.157,26.156C18.411,25.388,18,24.371,18,23.292c0-0.877,0.258-1.734,0.746-2.479c0.104-0.158,0.109-0.36,0.016-0.523
			c-0.555-0.966-0.798-2.094-0.86-2.586c0.825-0.806,1.312-1.984,1.312-3.204c0-0.523,0.171-0.736,0.229-0.766
			c0.156-0.041,0.283-0.153,0.342-0.304c0.025-0.067,0.638-1.661,0.638-2.681c0-0.04-0.005-0.079-0.014-0.118
			c-0.064-0.265-0.25-0.66-0.591-0.868V6.374c0-1.992-0.593-2.782-1.212-3.243C18.536,2.157,17.626,0,14,0
			c-3.771,0-6.61,3.791-6.61,6.25c0,1.134-0.047,2.056-0.081,2.729C7.296,9.226,7.285,9.445,7.278,9.634
			C6.932,9.84,6.745,10.24,6.679,10.507c-0.009,0.039-0.014,0.078-0.014,0.118c0,1.02,0.612,2.613,0.638,2.681
			c0.059,0.15,0.154,0.253,0.311,0.294c0.09,0.039,0.26,0.252,0.26,0.775c0,1.43,1.367,2.83,1.932,3.347
			c-0.024,0.867-0.208,3.236-1.482,3.792L2.71,22.879c-1.345,0.465-2.352,1.587-2.694,3.004C0.005,25.921,0,25.96,0,26v3.5
			C0,29.776,0.224,30,0.5,30h21.211c0.201,0,0.383-0.12,0.461-0.306c0.078-0.185,0.038-0.398-0.103-0.543L19.157,26.156z
			 M27.502,20.042c-1.06-0.177-2.036,0.035-2.681,0.58c-0.12,0.101-0.228,0.212-0.321,0.332c-0.094-0.12-0.201-0.231-0.321-0.332
			c-0.645-0.547-1.62-0.757-2.682-0.58C20.073,20.28,19,21.643,19,23.292c0,0.817,0.311,1.587,0.874,2.167l4.268,4.39
			C24.236,29.946,24.366,30,24.5,30c0.134,0,0.265-0.055,0.358-0.151l4.268-4.39c0.563-0.58,0.874-1.35,0.874-2.25
			C30,21.643,28.927,20.28,27.502,20.042z"/>
	</g>
</g>
</svg>
