<svg xmlns="http://www.w3.org/2000/svg" viewBox="0 0 75 68.23"><title>inst-ico-print</title><path d="M72.33,68.94H2.67V36.85H14.44v8.69H60.56V36.85H72.33V68.94ZM17.11,6.06h23.4V19.93A3.51,3.51,0,0,0,44,23.44H57.89V42.87H17.11V6.06ZM43.18,6.68l14.1,14.09H43.18V6.68ZM71.5,34.18H60.56V20.76a1.32,1.32,0,0,0-.45-0.93L44,3.76a1.33,1.33,0,0,0-.92-0.37H17.95A3.51,3.51,0,0,0,14.44,6.9V34.18H3.51A3.51,3.51,0,0,0,0,37.69V68.1a3.51,3.51,0,0,0,3.51,3.51h68A3.51,3.51,0,0,0,75,68.1V37.69A3.51,3.51,0,0,0,71.5,34.18Z" transform="translate(0 -3.39)"/><path d="M59.23,60.25H15.78a1.33,1.33,0,1,0,0,2.67H59.23A1.33,1.33,0,1,0,59.23,60.25Z" transform="translate(0 -3.39)"/></svg>