<svg xmlns="http://www.w3.org/2000/svg" viewBox="0 0 67.5 63.46"><title>inst-ico-mail</title><path d="M41.32,28.57a5.58,5.58,0,0,0-1.62-.23c-2.84,0-5.14,2.68-5.14,5.82,0,1.42.71,2.46,2.13,2.46,1.88,0,3.59-2.39,3.94-4.4Zm-4,15.26c-5.3,0-9.79-3.88-9.79-10.09,0-6.66,4.62-12.41,11.8-12.41a9,9,0,0,1,9.41,9.34c0,4.85-2.72,7.69-5.75,7.69-1.29,0-2.49-.87-2.39-2.84H40.48a5.08,5.08,0,0,1-4.56,2.84c-1.87,0-3.49-1.52-3.49-4.07a7.63,7.63,0,0,1,7.66-7.66,8.47,8.47,0,0,1,3.46.68l-1.1,5.85c-0.48,2.46-.1,3.59,1,3.62,1.65,0,3.49-2.16,3.49-5.91,0-4.69-2.81-8-7.82-8-5.27,0-9.69,4.17-9.69,10.73,0,5.4,3.52,8.73,8.3,8.73a10,10,0,0,0,4.88-1.13l0.52,1.39A11.76,11.76,0,0,1,37.35,43.82Zm31.86-13L37.82,57.36l0,0L24.21,46.05,5.8,30.76V67.19H69.21V30.79h0ZM6.49,28.68L11,32.4V25.75ZM13,34.05l12.5,10.43L37.76,54.69l0,0L62,34.06v-20H13v20ZM31.93,12H43.41L37.71,8.22ZM64,32.49l4.5-3.81-4.5-3v6.8ZM71.25,28v41.2H3.75V28L11,23.3V12H28.19l9.52-6.24L47.11,12H64V23.24ZM37.78,54.66L25.51,44.48,37.76,54.69ZM24.21,46.05L37.8,57.34l0,0Z" transform="translate(-3.75 -5.77)" style="fill:#0e0e0e"/></svg>