<svg xmlns="http://www.w3.org/2000/svg" viewBox="0 0 75 75"><title>inst-ico-call</title><path d="M6.25,33.59a3.13,3.13,0,0,0-3.12,3.13V53.91a3.13,3.13,0,0,0,6.25,0V36.72A3.13,3.13,0,0,0,6.25,33.59Zm0,26.56A6.26,6.26,0,0,1,0,53.91V36.72a6.25,6.25,0,0,1,12.5,0V53.91A6.26,6.26,0,0,1,6.25,60.16Z"/><path d="M68.75,33.59a3.13,3.13,0,0,0-3.12,3.13V53.91a3.13,3.13,0,0,0,6.25,0V36.72A3.13,3.13,0,0,0,68.75,33.59Zm0,26.56a6.26,6.26,0,0,1-6.25-6.25V36.72a6.25,6.25,0,0,1,12.5,0V53.91A6.26,6.26,0,0,1,68.75,60.16Z"/><path d="M57,71.88H44.53V68.75H57A10.17,10.17,0,0,0,67.19,58.59h3.12A13.29,13.29,0,0,1,57,71.88Z"/><path d="M37.11,68a2,2,0,1,0,0,3.91H41A2,2,0,1,0,41,68H37.11ZM41,75H37.11a5.08,5.08,0,1,1,0-10.16H41A5.08,5.08,0,1,1,41,75Z"/><path d="M70.31,32.81H67.19a29.69,29.69,0,0,0-59.38,0H4.69A32.81,32.81,0,1,1,70.31,32.81Z"/></svg>