<svg xmlns="http://www.w3.org/2000/svg" viewBox="0 0 75 47.88"><title>inst-ico-pc</title><rect x="9.38" y="37.11" width="56.25" height="2.78"/><path d="M10.77,52.06a1.4,1.4,0,0,1-.41,1L4.75,58.66H70.26L64.64,53a1.41,1.41,0,0,1-.41-1V16.34H10.77V52.06ZM1.39,61.44a1.4,1.4,0,0,1-1.29-.86,1.39,1.39,0,0,1,.3-1.51L8,51.48V15a1.39,1.39,0,0,1,1.39-1.39H65.62A1.39,1.39,0,0,1,67,14.95V51.48l7.58,7.58a1.39,1.39,0,0,1-1,2.37H1.39Z" transform="translate(0 -13.56)"/><path d="M28.68,57.11a0.46,0.46,0,0,1,0-.93H46.82a0.46,0.46,0,0,1,0,.93H28.68Z" transform="translate(0 -13.56)"/></svg>