<?xml version="1.0" encoding="UTF-8" standalone="no"?>
<!DOCTYPE svg  PUBLIC '-//W3C//DTD SVG 1.1//EN'  'http://www.w3.org/Graphics/SVG/1.1/DTD/svg11.dtd'>
<svg xmlns="http://www.w3.org/2000/svg" version="1.1">
<defs>
<font id="PrivaOnePro" horiz-adv-x="560">
<font-face bbox="-35 -296 975 954" unicode-range="U+0020-02DC" descent="-200" ascent="800" x-height="500" units-per-em="1000" underline-thickness="50" font-weight="400" underline-position="-150" cap-height="670" panose-1="2 0 0 0 0 0 0 0 0 0" font-family="PrivaOnePro"/>
<missing-glyph/>
<glyph glyph-name="space" unicode=" " horiz-adv-x="240"/>
<glyph glyph-name="space" unicode=" " horiz-adv-x="240"/>
<glyph glyph-name="exclam" d="M99 690h85l-10 -545h-65zM90 47q0 22 15 37t37 15t37 -15t15 -37t-15 -37t-37 -15t-37 15t-15 37z" unicode="!" horiz-adv-x="284"/>
<glyph glyph-name="quotedbl" d="M80 700h85l-15 -240h-55zM250 700h85l-15 -240h-55z" unicode='&quot;' horiz-adv-x="415"/>
<glyph glyph-name="numbersign" d="M641 253h-149l25 180h134v59h-126l24 178h-63l-25 -178h-168l24 178h-63l-25 -178h-159v-59h151l-26 -180h-135v-59h127l-27 -194h66l26 194h167l-27 -194h66l26 194h157v59zM260 253l25 180h168l-26 -180h-167z" unicode="#" horiz-adv-x="711"/>
<glyph glyph-name="dollar" d="M315 800h-65v-122q-82 -9 -132 -56.5t-50 -122.5q0 -79 47 -119t144 -67q77 -22 116.5 -51t39.5 -87q0 -57 -39 -88.5t-110 -31.5q-37 0 -90.5 10t-90.5 25l-20 -60q73 -37 185 -40v-120h65v124q79 12 127 62t48 129q0 75 -48 119.5t-145 73.5q-76 23 -115.5 51t-39.5 83 q0 50 39.5 76.5t102.5 26.5q75 0 156 -30l20 65q-67 25 -145 29v121z" unicode="$" horiz-adv-x="555"/>
<glyph glyph-name="percent" d="M248 -20h61l266 710h-58zM189 437q-47 0 -60 22.5t-13 78.5q0 61 15 87t64 26q47 0 60 -22.5t13 -78.5q0 -61 -15 -87t-64 -26zM198 700q-74 0 -106 -40t-32 -122q0 -78 31 -114t95 -36q74 0 106 40t32 122q0 78 -31 114t-95 36zM639 39q-47 0 -60 22.5t-13 78.5 q0 61 15 87t64 26q47 0 60 -22.5t13 -78.5q0 -61 -15 -87t-64 -26zM648 302q-74 0 -106 -40t-32 -122q0 -78 31 -114t95 -36q74 0 106 40t32 122q0 78 -31 114t-95 36z" unicode="%" horiz-adv-x="834"/>
<glyph glyph-name="ampersand" d="M268 413q-57 73 -57 124q0 36 25.5 62t62.5 26q34 0 55 -19.5t21 -50.5q0 -42 -26.5 -72.5t-80.5 -69.5zM252 333l212 -219q-41 -33 -80.5 -48.5t-100.5 -15.5q-65 0 -108 35t-43 90q0 27 8.5 49t31 44t34.5 31t46 34zM213 380q-39 -28 -58.5 -44.5t-45.5 -43.5 t-37.5 -56t-11.5 -63q0 -87 58 -135t160 -48q77 1 129 20.5t99 59.5q41 -38 77.5 -59t82.5 -21l23 58q-61 7 -132 67q86 113 97 250h-71q-3 -115 -72 -202l-203 205q3 3 21 16.5t23 17.5t20.5 16.5t21.5 19t17.5 19t16.5 22.5t11 22.5t8.5 26t2.5 27.5q-1 57 -43.5 91 t-103.5 34q-71 0 -118 -41t-42 -107q4 -44 19.5 -78t50.5 -74z" unicode="&amp;" horiz-adv-x="739"/>
<glyph glyph-name="quotesingle" d="M80 700h85l-15 -240h-55z" unicode="&apos;" horiz-adv-x="245"/>
<glyph glyph-name="parenleft" d="M125 290q0 -266 150 -420l-35 -35q-100 79 -145 201t-45 254t45 254t145 201l35 -35q-150 -154 -150 -420z" unicode="(" horiz-adv-x="325"/>
<glyph glyph-name="parenright" d="M200 290q0 -266 -150 -420l35 -35q100 79 145 201t45 254t-45 254t-145 201l-35 -35q150 -154 150 -420z" unicode=")" horiz-adv-x="325"/>
<glyph glyph-name="asterisk" d="M192 551l89 46l-16 28l-83 -54l6 99h-34l5 -99l-82 54l-17 -28l89 -46l-88 -44l16 -30l83 56l-6 -99h34l-6 99l83 -56l16 30z" unicode="*" horiz-adv-x="341"/>
<glyph glyph-name="plus" d="M326 72h-70v193h-196v62h196v194h70v-194h197v-62h-197v-193z" unicode="+" horiz-adv-x="583"/>
<glyph glyph-name="comma" d="M132 -5q-22 0 -37 15t-15 37t15 37t37 15q21 0 35 -14.5t17 -37.5q5 -43 -12 -96.5t-52 -100.5l-30 15q43 76 42 130z" unicode="," horiz-adv-x="266"/>
<glyph glyph-name="hyphen" d="M316 328v-63h-256v63h256z" unicode="-" horiz-adv-x="376"/>
<glyph glyph-name="period" d="M80 47q0 22 15 37t37 15t37 -15t15 -37t-15 -37t-37 -15t-37 15t-15 37z" unicode="." horiz-adv-x="264"/>
<glyph glyph-name="slash" d="M50 -20h71l266 710h-68z" unicode="/" horiz-adv-x="437"/>
<glyph glyph-name="zero" d="M280 55q-88 0 -121.5 69t-33.5 201q0 141 38.5 215.5t126.5 74.5q46 0 75.5 -18t44.5 -55.5t20 -81.5t5 -110q0 -147 -33.5 -221t-121.5 -74zM295 680q-73 0 -122.5 -26.5t-75.5 -77t-36.5 -110.5t-10.5 -141q0 -335 220 -335q58 0 101 18.5t69.5 50t42.5 79t21.5 98 t5.5 114.5q0 160 -49.5 245t-165.5 85z" unicode="0"/>
<glyph glyph-name="one" d="M250 64v526q-24 -14 -71.5 -27t-73.5 -15l-10 55q37 8 86.5 30.5t75.5 41.5h63v-611h175v-64h-430v64h185z" unicode="1"/>
<glyph glyph-name="two" d="M150 65h360v-65h-460v64q17 15 57 46t76 58.5t78 67t72.5 76.5t51 83t20.5 90q0 60 -41 95t-104 35q-76 0 -157 -48l-32 58q75 55 199 55q94 0 151 -45.5t59 -148.5q1 -72 -57 -156.5t-106 -126.5t-153 -126q-9 -8 -14 -12z" unicode="2"/>
<glyph glyph-name="three" d="M120 585l-25 55q80 40 165 40q92 0 146 -41t54 -116q0 -55 -27.5 -100t-72.5 -68q55 -18 87.5 -63t32.5 -100q0 -96 -68 -149t-182 -53q-96 0 -150 30l25 60q56 -25 125 -25q71 0 123 30.5t52 91.5q0 80 -53 111.5t-147 31.5h-55v60q110 5 147 16q88 27 88 117 q0 50 -37 78.5t-98 28.5q-56 0 -130 -35z" unicode="3"/>
<glyph glyph-name="four" d="M523 167h-119v-167h-70v167h-298v65l268 438h100v-438h119v-65zM334 232v373l-226 -373h226z" unicode="4"/>
<glyph glyph-name="five" d="M90 75q0 -1 -8 -33l-7 -32q76 -20 140 -20q118 0 194 58.5t76 166.5q0 101 -62.5 153t-172.5 52q-43 0 -80 -5l5 185h285v70h-355l-5 -315l20 -20q58 20 120 20q73 0 121.5 -35.5t48.5 -109.5q0 -77 -55.5 -116t-134.5 -39q-54 0 -130 20z" unicode="5"/>
<glyph glyph-name="six" d="M300 420q94 0 152 -56t58 -149q0 -102 -64 -163.5t-171 -61.5q-110 0 -167.5 74t-57.5 186q0 102 20.5 178t66 134.5t125.5 88.5t193 29v-65q-70 -2 -121.5 -14.5t-96.5 -40t-71 -77.5t-31 -123q66 60 165 60zM130 290q-24 -235 155 -235q76 0 113 40.5t37 114.5 q0 70 -38.5 107.5t-106.5 37.5q-102 0 -160 -65z" unicode="6"/>
<glyph glyph-name="seven" d="M170 0l80 -10q78 316 245 615v65h-430v-70h345q-162 -305 -240 -600z" unicode="7"/>
<glyph glyph-name="eight" d="M268 384q-64 21 -94.5 50t-30.5 81q0 46 36.5 75.5t98.5 29.5q61 0 98 -28.5t37 -76.5q0 -60 -41.5 -93t-103.5 -38zM273 325q76 -23 118 -60t40 -99q-2 -58 -44 -87t-109 -29q-150 0 -150 120q0 101 145 155zM68 500q0 -46 32 -87.5t93 -62.5q-140 -58 -140 -185 q0 -82 60.5 -128.5t159.5 -46.5q101 0 168 51.5t67 138.5q0 59 -41 102t-105 68q126 66 126 160q0 82 -59.5 126t-145.5 44q-98 0 -156.5 -45t-58.5 -135z" unicode="8"/>
<glyph glyph-name="nine" d="M260 250q-94 0 -152 56t-58 149q0 102 64 163.5t171 61.5q110 0 167.5 -74t57.5 -186q0 -102 -20.5 -178t-66 -134.5t-125.5 -88.5t-193 -29v65q70 2 121.5 14.5t96.5 40t71 77.5t31 123q-66 -60 -165 -60zM430 380q24 235 -155 235q-76 0 -113 -40.5t-37 -114.5 q0 -70 38.5 -107.5t106.5 -37.5q102 0 160 65z" unicode="9"/>
<glyph glyph-name="colon" d="M80 47q0 22 15 37t37 15t37 -15t15 -37t-15 -37t-37 -15t-37 15t-15 37zM80 367q0 22 15 37t37 15t37 -15t15 -37t-15 -37t-37 -15t-37 15t-15 37z" unicode=":" horiz-adv-x="264"/>
<glyph glyph-name="semicolon" d="M132 -5q-22 0 -37 15t-15 37t15 37t37 15q21 0 35 -14.5t17 -37.5q5 -43 -12 -96.5t-52 -100.5l-30 15q43 76 42 130zM80 367q0 22 15 37t37 15t37 -15t15 -37t-15 -37t-37 -15t-37 15t-15 37z" unicode=";" horiz-adv-x="266"/>
<glyph glyph-name="less" d="M80 262v58l312 221l14 -66l-259 -184l259 -184l-14 -66z" unicode="&lt;" horiz-adv-x="486"/>
<glyph glyph-name="equal" d="M496 239v-64h-416v64h416zM496 414v-63h-416v63h416z" unicode="=" horiz-adv-x="576"/>
<glyph glyph-name="greater" d="M406 262v58l-312 221l-14 -66l259 -184l-259 -184l14 -66z" unicode="&gt;" horiz-adv-x="486"/>
<glyph glyph-name="question" d="M202 145h-66q-19 75 -5 125q12 43 41 72t74 53q70 38 70 100q0 42 -24 73t-63 46.5t-72 23t-67 10.5l12 62q44 0 90 -10.5t92.5 -33t76.5 -65.5t30 -101q0 -108 -115 -165q-40 -21 -60 -46.5t-20 -68.5q0 -30 6 -75zM116 47q0 22 15 37t37 15t37 -15t15 -37t-15 -37 t-37 -15t-37 15t-15 37z" unicode="?" horiz-adv-x="451"/>
<glyph glyph-name="at" d="M717 348q0 -25 -6 -51.5t-20 -56.5t-44.5 -49.5t-71.5 -20.5v213q0 117 -133 117q-75 0 -127 -23l11 -44q59 18 105 18q89 0 89 -75v-39h-110q-125 0 -125 -112q0 -53 31.5 -79t81.5 -26q68 0 117 32h5l6 -32q66 -4 114 14.5t72 45t38 65.5t16.5 62.5t2.5 49.5 q0 139 -82.5 218.5t-238.5 79.5q-175 0 -266.5 -93t-91.5 -272q0 -170 83.5 -247t252.5 -77v54q-82 0 -138 19t-86 56.5t-42.5 84t-12.5 109.5q0 149 68 230t222 81q280 0 280 -252zM520 287v-98q-69 -15 -125 -15q-31 0 -44.5 13.5t-13.5 45.5q0 54 65 54h118z" unicode="@" horiz-adv-x="859"/>
<glyph glyph-name="A" d="M273 673h81l245 -673h-81l-68 190h-280l-67 -190h-78zM425 250l-115 330l-115 -330h230z" unicode="A" horiz-adv-x="624"/>
<glyph glyph-name="B" d="M545 190q0 -68 -37.5 -112t-92 -61t-125.5 -17h-195v670h199q226 0 226 -170q0 -45 -25.5 -86t-69.5 -64q58 -18 89 -62t31 -98zM168 315v-252h133q166 0 166 127q0 33 -11 57t-27 37t-39.5 20t-42 9t-42.5 2h-137zM168 375h122q17 0 32 1.5t38.5 8t40 18.5t29 36 t12.5 56q0 63 -40.5 87.5t-112.5 24.5h-121v-232z" unicode="B" horiz-adv-x="605"/>
<glyph glyph-name="C" d="M516 585l25 60q-76 35 -190 35q-82 0 -139.5 -27t-88.5 -77t-44.5 -109.5t-13.5 -136.5q0 -72 15 -131t46.5 -107t87 -75t131.5 -27q101 0 205 55l-20 55q-38 -18 -89.5 -31.5t-85.5 -13.5q-215 0 -215 275q0 133 48.5 209t167.5 76q91 0 160 -30z" unicode="C" horiz-adv-x="605"/>
<glyph glyph-name="D" d="M168 65v540h100q139 0 203 -68t64 -202q0 -137 -67 -203.5t-205 -66.5h-95zM95 670v-670h174q166 0 253.5 85t87.5 250q0 155 -78.5 245t-242.5 90h-194z" unicode="D" horiz-adv-x="675"/>
<glyph glyph-name="E" d="M168 380v226h309v64h-382v-670h386v64h-313v251h250v65h-250z" unicode="E" horiz-adv-x="556"/>
<glyph glyph-name="F" d="M168 380v226h309v64h-382v-670h73v315h250v65h-250z" unicode="F" horiz-adv-x="517"/>
<glyph glyph-name="G" d="M570 300h-73v-221q-81 -24 -132 -24q-119 0 -172 76t-53 199q0 285 226 285q101 0 170 -30l25 60q-76 35 -200 35q-82 0 -141 -27t-92 -76.5t-48 -110t-15 -136.5q0 -71 16.5 -130.5t50 -107.5t90.5 -75t133 -27q111 0 215 55v255z" unicode="G" horiz-adv-x="650"/>
<glyph glyph-name="H" d="M168 670v-290h358v290h73v-670h-73v315h-358v-315h-73v670h73z" unicode="H" horiz-adv-x="694"/>
<glyph glyph-name="I" d="M95 670h73v-670h-73v670z" unicode="I" horiz-adv-x="263"/>
<glyph glyph-name="J" d="M240 670v-555q0 -125 -125 -125q-36 0 -90 10l7 57q35 -7 70 -7q25 0 45 14.5t20 49.5v556h73z" unicode="J" horiz-adv-x="335"/>
<glyph glyph-name="K" d="M168 326v344h-73v-670h73v230l79 88l241 -318h96l-289 370l270 300h-90z" unicode="K" horiz-adv-x="614"/>
<glyph glyph-name="L" d="M168 64v606h-73v-670h376v64h-303z" unicode="L" horiz-adv-x="491"/>
<glyph glyph-name="M" d="M445 0l215 550l35 -550h75l-45 670h-95l-203 -530l-207 530h-95l-45 -670h75l35 550l215 -550h40z" unicode="M" horiz-adv-x="850"/>
<glyph glyph-name="N" d="M530 670h73v-670h-85l-350 550v-550h-73v670h85l350 -550v550z" unicode="N" horiz-adv-x="698"/>
<glyph glyph-name="O" d="M350 55q-117 0 -163.5 69.5t-46.5 200.5q0 140 51.5 215t168.5 75t163.5 -67.5t46.5 -197.5q0 -143 -51 -219t-169 -76zM365 680q-161 0 -230.5 -88t-69.5 -267q0 -171 68.5 -253t206.5 -82q160 0 232.5 91t72.5 269q0 170 -70 250t-210 80z" unicode="O" horiz-adv-x="710"/>
<glyph glyph-name="P" d="M290 330h-122v275h112q82 0 126 -30.5t44 -104.5q0 -64 -43 -102t-117 -38zM525 470q0 95 -57 147.5t-168 52.5h-205v-670h73v265h122q100 0 167.5 50t67.5 155z" unicode="P" horiz-adv-x="573"/>
<glyph glyph-name="Q" d="M365 680q-161 0 -230.5 -88t-69.5 -267q0 -171 67.5 -252.5t205.5 -82.5l272 -190l40 65l-217 135q212 47 212 350q0 170 -70 250t-210 80zM350 55q-117 0 -163.5 69.5t-46.5 200.5q0 140 51.5 215t168.5 75t163.5 -67.5t46.5 -197.5q0 -143 -51 -219t-169 -76z" unicode="Q" horiz-adv-x="710"/>
<glyph glyph-name="R" d="M525 475q0 95 -57 145t-168 50h-205v-670h73v275h84l207 -275h95l-216 280q81 12 134 60.5t53 134.5zM290 340h-122v265h112q83 0 126.5 -28.5t43.5 -101.5q0 -64 -42.5 -99.5t-117.5 -35.5z" unicode="R" horiz-adv-x="605"/>
<glyph glyph-name="S" d="M85 90l-20 -60q80 -40 200 -40q98 0 161.5 52t63.5 143q0 75 -48 119.5t-145 73.5q-76 23 -115.5 51t-39.5 83q0 50 39.5 76.5t102.5 26.5q75 0 156 -30l20 65q-80 30 -173 30q-96 0 -157.5 -48.5t-61.5 -132.5q0 -79 47 -119t144 -67q77 -22 116.5 -51t39.5 -87 q0 -57 -39 -88.5t-110 -31.5q-37 0 -90.5 10t-90.5 25z" unicode="S" horiz-adv-x="555"/>
<glyph glyph-name="T" d="M515 606h-206v-606h-73v606h-206v64h485v-64z" unicode="T" horiz-adv-x="545"/>
<glyph glyph-name="U" d="M339 -10q-120 0 -187 68.5t-67 191.5v420h74v-420q0 -196 180 -196t180 196v420h74v-420q0 -123 -67 -191.5t-187 -68.5z" unicode="U" horiz-adv-x="678"/>
<glyph glyph-name="V" d="M270 -3h75l255 673h-80l-210 -580l-205 580h-80z" unicode="V" horiz-adv-x="625"/>
<glyph glyph-name="W" d="M491 670h-63l-158 -570l-155 570h-75l185 -670h85l147 530l147 -530h85l185 670h-75l-155 -570z" unicode="W" horiz-adv-x="914"/>
<glyph glyph-name="X" d="M485 0h90l-230 350l215 320h-84l-173 -270l-173 270h-85l215 -325l-225 -345h85l180 290z" unicode="X" horiz-adv-x="610"/>
<glyph glyph-name="Y" d="M105 670h-85l227 -417v-253h73v253l229 417h-80l-184 -343z" unicode="Y" horiz-adv-x="569"/>
<glyph glyph-name="Z" d="M520 610v60h-455v-64h370l-385 -546v-60h475v64h-395z" unicode="Z" horiz-adv-x="575"/>
<glyph glyph-name="bracketleft" d="M170 -89v771h123v58h-193v-889h193v60h-123z" unicode="[" horiz-adv-x="343"/>
<glyph glyph-name="backslash" d="M387 -20h-71l-266 710h68z" unicode="\" horiz-adv-x="437"/>
<glyph glyph-name="bracketright" d="M172 -89v771h-122v58h192v-889h-192v60h122z" unicode="]" horiz-adv-x="342"/>
<glyph glyph-name="asciicircum" d="M319 679h-58l-181 -292l66 -14l144 239l144 -239l66 14z" unicode="^" horiz-adv-x="580"/>
<glyph glyph-name="underscore" d="M501 -130v-59h-471v59h471z" unicode="_" horiz-adv-x="531"/>
<glyph glyph-name="grave" d="M281 621l-39 -37l-152 117l48 57z" unicode="`" horiz-adv-x="361"/>
<glyph glyph-name="a" d="M370 205v-135q-96 -20 -170 -20q-42 0 -61 18.5t-19 61.5q0 75 90 75h160zM220 265q-86 0 -128 -31.5t-42 -106.5q0 -137 154 -137q94 0 161 45h5q5 -45 50 -45q38 0 85 20v45h-65v295q0 160 -175 160q-100 0 -175 -30l15 -55q83 25 145 25q120 0 120 -110v-90h-3 q-71 15 -147 15z" unicode="a" horiz-adv-x="545"/>
<glyph glyph-name="b" d="M95 700v-670q3 -1 17.5 -6t20.5 -7t20.5 -6.5t23.5 -6.5t24 -5t27 -5t27 -3t30 -1q117 0 173.5 74.5t56.5 195.5q0 109 -47 179.5t-148 70.5q-79 0 -150 -45h-5v245zM295 450q46 0 77 -17t44.5 -48t18.5 -60.5t5 -69.5q0 -210 -155 -210q-53 0 -120 15v370q6 1 22 5.5 t23 6t21.5 4t29.5 3.5t34 1z" unicode="b" horiz-adv-x="575"/>
<glyph glyph-name="c" d="M430 420l15 55q-56 35 -160 35q-123 0 -174 -66.5t-51 -203.5q0 -130 49.5 -190t155.5 -60q115 0 175 30l-15 55q-67 -25 -150 -25q-84 0 -112 46.5t-28 143.5q0 105 31.5 157.5t113.5 52.5q80 0 150 -30z" unicode="c" horiz-adv-x="495"/>
<glyph glyph-name="d" d="M410 482l-3 -2q-55 30 -128 30q-113 0 -166 -74t-53 -196q0 -109 47 -179.5t148 -70.5q79 0 150 45h5v-35h70v710l-70 -10v-218zM280 50q-46 0 -77 17t-44.5 48t-18.5 60.5t-5 69.5q0 205 155 205q52 0 120 -15v-365q-6 -1 -22 -5.5t-23 -6t-21.5 -4t-29.5 -3.5t-34 -1z " unicode="d" horiz-adv-x="575"/>
<glyph glyph-name="e" d="M435 75l3 -13l8 -28l4 -14q-68 -30 -160 -30q-118 0 -174 58t-56 202q0 127 55 193.5t160 66.5q200 0 200 -216q0 -26 -5 -49h-340q0 -110 40 -152.5t120 -42.5q78 0 145 25zM275 450q-125 0 -143 -145h273q-8 145 -130 145z" unicode="e" horiz-adv-x="540"/>
<glyph glyph-name="f" d="M190 0h-70v440h-90v60h90v95q0 125 125 125q47 0 100 -15l-10 -55q-40 10 -80 10q-25 0 -45 -14.5t-20 -49.5v-96h140l-10 -60h-130v-440z" unicode="f" horiz-adv-x="360"/>
<glyph glyph-name="g" d="M185 146q29 -6 64 -6q109 0 162.5 46.5t53.5 148.5q0 66 -40 117l101 84l-52 58l-86 -110q-43 26 -113 26q-109 0 -162.5 -46.5t-53.5 -148.5q0 -109 84 -154q-28 -25 -33 -56q-10 -54 25 -80q-80 -43 -80 -135q0 -64 57 -99.5t143 -35.5q114 0 181 42.5t79 112.5 q11 62 -25 111t-125 49h-180q-12 19 -10 41.5t10 34.5zM255 195q-72 0 -98 29t-26 91q0 72 30.5 106t105.5 34q72 0 99 -29.5t27 -90.5q0 -71 -31.5 -105.5t-106.5 -34.5zM125 -105q0 65 45 110h180q56 0 79 -30.5t11 -74.5q-11 -39 -62 -62t-108 -23q-81 0 -113 23.5 t-32 56.5z" unicode="g" horiz-adv-x="553"/>
<glyph glyph-name="h" d="M317 450q-77 0 -152 -35v-415h-70v700l70 10v-250h5q79 50 162 50q163 0 163 -172v-338h-70v308q0 142 -108 142z" unicode="h" horiz-adv-x="585"/>
<glyph glyph-name="i" d="M175 500v-500h-70v500h70zM93 627q0 19 13.5 33t33.5 14t33.5 -14t13.5 -33t-13.5 -33t-33.5 -14t-33.5 14t-13.5 33z" unicode="i" horiz-adv-x="280"/>
<glyph glyph-name="j" d="M180 500v-585q0 -125 -125 -125q-36 0 -90 10l10 57q35 -7 70 -7q25 0 45 14.5t20 49.5v586h70zM98 627q0 19 14 33t33 14t33 -14t14 -33t-14 -33t-33 -14t-33 14t-14 33z" unicode="j" horiz-adv-x="285"/>
<glyph glyph-name="k" d="M165 710v-415h107l163 205h85l-185 -230l215 -270h-90l-185 230h-110v-230h-70v700z" unicode="k"/>
<glyph glyph-name="l" d="M165 710v-710h-70v700z" unicode="l" horiz-adv-x="260"/>
<glyph glyph-name="m" d="M307 450q-67 0 -142 -35v-415h-70v500h70v-40h5q79 50 152 50q99 0 139 -64q88 64 183 64q166 0 166 -172v-338h-70v308q0 142 -111 142q-75 0 -151 -43q9 -30 9 -69v-338h-70v308q0 142 -110 142z" unicode="m" horiz-adv-x="899"/>
<glyph glyph-name="n" d="M317 450q-77 0 -152 -35v-415h-70v500h70v-40h5q79 50 162 50q163 0 163 -172v-338h-70v308q0 142 -108 142z" unicode="n" horiz-adv-x="585"/>
<glyph glyph-name="o" d="M275 45q-84 0 -114.5 49.5t-30.5 145.5q0 105 35 160t120 55q84 0 114.5 -49.5t30.5 -145.5q0 -105 -35 -160t-120 -55zM290 510q-124 0 -177 -67t-53 -203q0 -130 52 -190t158 -60q124 0 177 67t53 203q0 130 -52 190t-158 60z" unicode="o"/>
<glyph glyph-name="p" d="M165 18l3 2q56 -30 128 -30q113 0 166 74t53 196q0 109 -47 179.5t-148 70.5q-79 0 -150 -45h-5v35h-70v-700h70v218zM295 450q46 0 77 -17t44.5 -48t18.5 -60.5t5 -69.5q0 -210 -155 -210q-53 0 -120 15v370q6 1 22 5.5t23 6t21.5 4t29.5 3.5t34 1z" unicode="p" horiz-adv-x="575"/>
<glyph glyph-name="q" d="M480 -200v670q-3 1 -17.5 6t-20.5 7t-20.5 6.5t-23.5 6.5t-24 5t-27 5t-27 3t-30 1q-117 0 -173.5 -74.5t-56.5 -195.5q0 -109 47 -179.5t148 -70.5q79 0 150 45h5v-235h70zM280 50q-46 0 -77 17t-44.5 48t-18.5 60.5t-5 69.5q0 210 155 210q52 0 120 -15v-370 q-6 -1 -22 -5.5t-23 -6t-21.5 -4t-29.5 -3.5t-34 -1z" unicode="q" horiz-adv-x="575"/>
<glyph glyph-name="r" d="M340 510v-70q-112 0 -165 -25v-415h-70v500h70v-40h5q79 50 160 50z" unicode="r" horiz-adv-x="385"/>
<glyph glyph-name="s" d="M80 75l-15 -60q87 -25 145 -25q89 0 144.5 37.5t55.5 112.5q0 36 -11.5 61.5t-35.5 41.5t-45.5 24t-57.5 18q-80 22 -99 34q-26 19 -26 56q0 75 110 75q58 0 125 -25l15 60q-73 25 -130 25q-190 0 -190 -140q0 -62 38 -92.5t107 -47.5q32 -8 51 -14t39.5 -17t30 -26.5 t9.5 -37.5q0 -43 -34.5 -64t-90.5 -21q-68 0 -135 25z" unicode="s" horiz-adv-x="475"/>
<glyph glyph-name="t" d="M190 660l-70 -10v-150h-90v-60h90v-325q0 -125 125 -125q36 0 90 10l-10 57q-35 -7 -70 -7q-25 0 -45 14.5t-20 49.5v326h130l10 60h-140v160z" unicode="t" horiz-adv-x="380"/>
<glyph glyph-name="u" d="M270 50q75 0 150 35v415h70v-500h-70v40h-5q-79 -50 -160 -50q-165 0 -165 172v338h70v-308q0 -142 110 -142z" unicode="u" horiz-adv-x="585"/>
<glyph glyph-name="v" d="M215 -5h65l195 505h-75l-145 -410h-10l-145 410h-80z" unicode="v" horiz-adv-x="495"/>
<glyph glyph-name="w" d="M516 -5h80l160 505h-80l-117 -410h-10l-123 410h-76l-123 -410h-10l-117 410h-80l160 -505h80l128 392z" unicode="w" horiz-adv-x="776"/>
<glyph glyph-name="x" d="M400 0h90l-185 255l180 245h-85l-135 -196l-135 196h-90l180 -245l-190 -255h90l140 200z" unicode="x" horiz-adv-x="525"/>
<glyph glyph-name="y" d="M204 10h46q-1 -5 -3.5 -14t-12 -32.5t-22.5 -43t-36 -38.5t-51 -26q-32 -8 -82 1l-8 -54q32 -8 60 -8q86 -2 143 57.5t97 202.5l125 445h-75l-117 -430h-10l-158 430h-80z" unicode="y" horiz-adv-x="480"/>
<glyph glyph-name="z" d="M415 445v55h-350v-65h268l-283 -380v-55h370v65h-283z" unicode="z" horiz-adv-x="480"/>
<glyph glyph-name="braceleft" d="M50 277v66q56 5 78.5 22t22.5 60v117q0 105 38 168t137 60v-55q-23 -1 -40.5 -8.5t-28.5 -15.5t-18.5 -26.5t-11 -28.5t-5.5 -36.5t-2 -34v-36.5v-99q0 -71 -58 -120q58 -49 58 -120v-99v-36.5t2 -34t5.5 -36.5t11 -28.5t18.5 -26.5t28.5 -15.5t40.5 -8.5v-55 q-99 -3 -137 60t-38 168v117q0 43 -22.5 60t-78.5 22z" unicode="{" horiz-adv-x="376"/>
<glyph glyph-name="bar" d="M110 755h65v-950h-65v950z" unicode="|" horiz-adv-x="285"/>
<glyph glyph-name="braceright" d="M326 277v66q-56 5 -78.5 22t-22.5 60v117q0 105 -38 168t-137 60v-55q23 -1 40.5 -8.5t28.5 -15.5t18.5 -26.5t11 -28.5t5.5 -36.5t2 -34v-36.5v-99q0 -71 58 -120q-58 -49 -58 -120v-99v-36.5t-2 -34t-5.5 -36.5t-11 -28.5t-18.5 -26.5t-28.5 -15.5t-40.5 -8.5v-55 q99 -3 137 60t38 168v117q0 43 22.5 60t78.5 22z" unicode="}" horiz-adv-x="376"/>
<glyph glyph-name="asciitilde" d="M80 310l40 -45q43 45 85 45q33 0 96.5 -30t98.5 -30q65 0 130 75l-35 45q-47 -50 -85 -50q-34 0 -99 30t-101 30q-66 0 -130 -70z" unicode="~" horiz-adv-x="610"/>
<glyph glyph-name="exclamdown" d="M99 -276h85l-10 545h-65zM90 367q0 -22 15 -37t37 -15t37 15t15 37t-15 37t-37 15t-37 -15t-15 -37z" unicode="¡" horiz-adv-x="284"/>
<glyph glyph-name="cent" d="M300 610h-60v-103q-98 -12 -139 -77.5t-41 -189.5q0 -122 43.5 -182t136.5 -67v-101h60v101q94 5 140 29l-15 55q-52 -20 -125 -25v399q71 -4 130 -29l15 55q-51 31 -145 35v100zM135 240q0 91 23.5 142.5t81.5 63.5v-394q-62 10 -83.5 56t-21.5 132z" unicode="¢" horiz-adv-x="495"/>
<glyph glyph-name="sterling" d="M144 500q0 -38 24 -122h-84v-48l95 -15q0 -38 -3 -65t-12.5 -64t-33 -69.5t-60.5 -59.5v-57h430v64h-336q51 61 71.5 119.5t15.5 132.5h171v62h-181q-25 87 -25 132q0 51 31 78t83 27q64 0 135 -30l17 65q-70 30 -149 30q-83 0 -136 -48t-53 -132z" unicode="£" horiz-adv-x="570"/>
<glyph glyph-name="currency" d="M100 249q0 -68 48 -114l-76 -86l9 -9l76 87q43 -35 100 -35q56 0 99 35l77 -87l9 9l-76 86q49 46 49 114t-50 115l78 89l-9 8l-78 -90q-44 36 -99 36q-56 0 -100 -36l-79 90l-8 -8l78 -90q-48 -46 -48 -114zM112 249q0 59 43 102.5t102 43.5t102.5 -43.5t43.5 -102.5 t-43.5 -102t-102.5 -43t-102 43t-43 102z" unicode="¤" horiz-adv-x="513"/>
<glyph glyph-name="yen" d="M470 277h-137l216 393h-80l-184 -343l-180 343h-85l214 -393h-137v-62h150v-215h73v215h150v62z" unicode="¥" horiz-adv-x="569"/>
<glyph glyph-name="brokenbar" d="M110 205h65v-400h-65v400zM110 755h65v-400h-65v400z" unicode="¦" horiz-adv-x="285"/>
<glyph glyph-name="section" d="M158 280h-75q0 -79 47.5 -119.5t143.5 -67.5q77 -22 116.5 -51t39.5 -87q0 -57 -39 -88.5t-110 -31.5q-37 0 -90.5 10t-90.5 25l-20 -60q80 -40 200 -40q98 0 161.5 52t63.5 143q0 75 -48 119.5t-145 73.5q-154 46 -154 122zM428 200h75q0 79 -47.5 119.5t-143.5 67.5 q-77 22 -116.5 51t-39.5 87q0 57 39 88.5t110 31.5q37 0 90.5 -10t90.5 -25l20 60q-80 40 -200 40q-98 0 -161.5 -52t-63.5 -143q0 -75 48 -119.5t145 -73.5q154 -46 154 -122z" unicode="§" horiz-adv-x="586"/>
<glyph glyph-name="dieresis" d="M76 633q0 22 14.5 36.5t36.5 14.5t36.5 -14.5t14.5 -36.5t-14.5 -36.5t-36.5 -14.5t-36.5 14.5t-14.5 36.5zM266 633q0 22 14.5 36.5t36.5 14.5t36.5 -14.5t14.5 -36.5t-14.5 -36.5t-36.5 -14.5t-36.5 14.5t-14.5 36.5z" unicode="¨" horiz-adv-x="444"/>
<glyph glyph-name="copyright" d="M100 335q0 143 101 244t244 101t244 -101t101 -244t-101 -244t-244 -101t-244 101t-101 244zM149 335q0 -122 87 -209t209 -87t209 87t87 209t-87 209t-209 87t-209 -87t-87 -209zM557 485l15 36q-48 21 -114 21q-172 0 -172 -212q0 -89 40.5 -145.5t128.5 -56.5 q55 0 123 33l-13 34q-56 -28 -105 -28q-129 0 -129 163q0 82 29 127.5t101 45.5q57 0 96 -18z" unicode="©" horiz-adv-x="890"/>
<glyph glyph-name="ordfeminine" d="M282 518v-80q-56 -13 -102 -13q-25 0 -36.5 11t-11.5 37q0 45 53 45h97zM192 555q-52 0 -77 -19t-25 -65q0 -81 92 -81q59 0 97 26h3q5 -26 31 -26q27 0 50 11v27h-39v178q0 94 -107 94q-58 0 -103 -16l9 -34q50 15 86 15q73 0 73 -65v-55h-1q-28 10 -89 10z" unicode="ª" horiz-adv-x="453"/>
<glyph glyph-name="guillemotleft" d="M80 285v-30l169 -185l49 39l-145 161l145 161l-49 39zM250 285v-30l169 -185l49 39l-145 161l145 161l-49 39z" unicode="«" horiz-adv-x="548"/>
<glyph glyph-name="logicalnot" d="M496 415v-210h-64v147h-352v63h416z" unicode="¬" horiz-adv-x="576"/>
<glyph glyph-name="uni00AD" d="M330 328v-63h-256v63h256z" unicode="­" horiz-adv-x="406"/>
<glyph glyph-name="registered" d="M100 335q0 143 101 244t244 101t244 -101t101 -244t-101 -244t-244 -101t-244 101t-101 244zM149 335q0 -122 87 -209t209 -87t209 87t87 209t-87 209t-209 87t-209 -87t-87 -209zM584 419q0 116 -135 116h-124v-400h44v164h51l125 -164h57l-128 167q47 7 78.5 36 t31.5 81zM442 340h-73v157h68q50 0 76 -17t26 -61q0 -38 -25 -58.5t-72 -20.5z" unicode="®" horiz-adv-x="890"/>
<glyph glyph-name="macron" d="M73 670h313v-62h-313v62z" unicode="¯" horiz-adv-x="463"/>
<glyph glyph-name="degree" d="M129 558q0 -35 24 -59t59 -24t59 24t24 59t-24 59t-59 24t-59 -24t-24 -59zM90 558q0 52 35 87t87 35t87 -35t35 -87t-35 -87t-87 -35t-87 35t-35 87z" unicode="°" horiz-adv-x="424"/>
<glyph glyph-name="plusminus" d="M326 265v-138h197v-62h-463v62h196v138h-196v62h196v194h70v-194h197v-62h-197z" unicode="±" horiz-adv-x="583"/>
<glyph glyph-name="twosuperior" d="M148 511h216v-61h-318v55q32 20 54 34.5t59 43.5t60 54.5t41 60t18 66.5q0 38 -23.5 58t-61.5 20q-43 0 -109 -35l-24 52q73 41 140 41q64 0 104.5 -32t40.5 -104q0 -61 -58.5 -128.5t-138.5 -124.5z" unicode="²" horiz-adv-x="410"/>
<glyph glyph-name="threesuperior" d="M76 814l-14 57q62 29 138 29q66 0 105.5 -32t39.5 -85q0 -66 -71 -98q39 -12 62 -42t23 -64q0 -65 -50 -102t-129 -37q-25 0 -65.5 9t-63.5 22l14 55q53 -28 115 -28q47 0 80 17.5t33 59.5q0 76 -114 76h-48v53q147 2 147 76q0 62 -86 62q-44 0 -116 -28z" unicode="³" horiz-adv-x="410"/>
<glyph glyph-name="acute" d="M90 621l39 -37l152 117l-48 57z" unicode="´" horiz-adv-x="361"/>
<glyph glyph-name="mu" d="M160 24v-94q0 -140 -125 -140l-10 60q25 0 45 15t20 55v580h70v-308q0 -142 110 -142q77 0 152 35v415h70v-500h-70v40h-5q-79 -50 -162 -50q-49 0 -93 36z" unicode="µ" horiz-adv-x="587"/>
<glyph glyph-name="paragraph" d="M245 700h49v-895h-55v523q-104 3 -156.5 48.5t-52.5 143.5q0 92 51.5 136t163.5 44zM359 700h55v-700h-55v700z" unicode="¶" horiz-adv-x="519"/>
<glyph glyph-name="periodcentered" d="M90 249q0 28 19 47t47 19t47 -19t19 -47t-19 -47t-47 -19t-47 19t-19 47z" unicode="·" horiz-adv-x="312"/>
<glyph glyph-name="cedilla" d="M69 -168v-27q51 -13 99 9.5t53 66.5q3 26 -12.5 50t-51.5 29v30h-50v-55q30 0 44.5 -15t10.5 -35q-9 -44 -93 -53z" unicode="¸" horiz-adv-x="293"/>
<glyph glyph-name="onesuperior" d="M241 510h114v-60h-299v60h122v307q-39 -17 -97 -23l-4 51q25 6 60 22t51 28h53v-385z" unicode="¹" horiz-adv-x="410"/>
<glyph glyph-name="ordmasculine" d="M217 422q-49 0 -67 29t-18 84q0 66 21 99.5t74 33.5q49 0 67 -29t18 -84q0 -66 -21 -99.5t-74 -33.5zM232 700q-77 0 -109.5 -40t-32.5 -125q0 -145 122 -145q77 0 109.5 40t32.5 125q0 145 -122 145z" unicode="º" horiz-adv-x="444"/>
<glyph glyph-name="guillemotright" d="M298 285v-30l-169 -185l-49 39l145 161l-145 161l49 39zM468 285v-30l-169 -185l-49 39l145 161l-145 161l49 39z" unicode="»" horiz-adv-x="548"/>
<glyph glyph-name="onequarter" d="M220 290h114v-60h-299v60h122v307q-39 -17 -97 -23l-4 51q25 6 60 22t51 28h53v-385zM370 -20h71l266 710h-68zM975 97h-52v-97h-64v97h-202v53l187 290h79v-282h52v-61zM859 158v197l-127 -197h127z" unicode="¼" horiz-adv-x="1010"/>
<glyph glyph-name="onehalf" d="M220 290h114v-60h-299v60h122v307q-39 -17 -97 -23l-4 51q25 6 60 22t51 28h53v-385zM350 -20h71l266 710h-68zM759 61h216v-61h-318v55q32 20 54 34.5t59 43.5t60 54.5t41 60t18 66.5q0 38 -23.5 58t-61.5 20q-43 0 -109 -35l-24 52q73 41 140 41q64 0 104.5 -32 t40.5 -104q0 -61 -58.5 -128.5t-138.5 -124.5z" unicode="½" horiz-adv-x="1010"/>
<glyph glyph-name="threequarters" d="M60 594l-14 57q62 29 138 29q66 0 105.5 -32t39.5 -85q0 -66 -71 -98q39 -12 62 -42t23 -64q0 -65 -50 -102t-129 -37q-25 0 -65.5 9t-63.5 22l14 55q53 -28 115 -28q47 0 80 17.5t33 59.5q0 76 -114 76h-48v53q147 2 147 76q0 62 -86 62q-44 0 -116 -28zM355 -20h71 l266 710h-68zM975 97h-52v-97h-64v97h-202v53l187 290h79v-282h52v-61zM859 158v197l-127 -197h127z" unicode="¾" horiz-adv-x="1010"/>
<glyph glyph-name="questiondown" d="M249 269h66q19 -75 5 -125q-12 -43 -41 -72t-74 -53q-70 -38 -70 -100q0 -42 24 -73t63 -46.5t72 -23t67 -10.5l-12 -62q-44 0 -90 10.5t-92.5 33t-76.5 65.5t-30 101q0 108 115 165q40 21 60 46.5t20 68.5q0 30 -6 75zM335 367q0 -22 -15 -37t-37 -15t-37 15t-15 37 t15 37t37 15t37 -15t15 -37z" unicode="¿" horiz-adv-x="451"/>
<glyph glyph-name="Agrave" d="M342 771l-39 -37l-152 117l48 57zM273 673h81l245 -673h-81l-68 190h-280l-67 -190h-78zM425 250l-115 330l-115 -330h230z" unicode="À" horiz-adv-x="624"/>
<glyph glyph-name="Aacute" d="M280 771l39 -37l152 117l-48 57zM273 673h81l245 -673h-81l-68 190h-280l-67 -190h-78zM425 250l-115 330l-115 -330h230z" unicode="Á" horiz-adv-x="624"/>
<glyph glyph-name="Acircumflex" d="M284 870l-122 -115l55 -25l95 80l95 -80l55 25l-122 115h-56zM273 673h81l245 -673h-81l-68 190h-280l-67 -190h-78zM425 250l-115 330l-115 -330h230z" unicode="Â" horiz-adv-x="624"/>
<glyph glyph-name="Atilde" d="M142 785l35 -30q33 40 60 40q23 0 70 -25t75 -25q29 0 58 19t47 51l-35 30q-32 -40 -60 -40q-22 0 -72 25t-78 25q-27 0 -55 -20t-45 -50zM273 673h81l245 -673h-81l-68 190h-280l-67 -190h-78zM425 250l-115 330l-115 -330h230z" unicode="Ã" horiz-adv-x="624"/>
<glyph glyph-name="Adieresis" d="M167 806q0 22 14.5 36.5t36.5 14.5t36.5 -14.5t14.5 -36.5t-14.5 -36.5t-36.5 -14.5t-36.5 14.5t-14.5 36.5zM357 806q0 22 14.5 36.5t36.5 14.5t36.5 -14.5t14.5 -36.5t-14.5 -36.5t-36.5 -14.5t-36.5 14.5t-14.5 36.5zM273 673h81l245 -673h-81l-68 190h-280l-67 -190 h-78zM425 250l-115 330l-115 -330h230z" unicode="Ä" horiz-adv-x="624"/>
<glyph glyph-name="Aring" d="M256 853q0 -24 16.5 -40.5t40.5 -16.5t40.5 16.5t16.5 40.5t-16.5 40.5t-40.5 16.5t-40.5 -16.5t-16.5 -40.5zM212 853q0 43 29 72t72 29t72 -29t29 -72t-29 -72t-72 -29t-72 29t-29 72zM273 673h81l245 -673h-81l-68 190h-280l-67 -190h-78zM425 250l-115 330l-115 -330 h230z" unicode="Å" horiz-adv-x="624"/>
<glyph glyph-name="AE" d="M509 606v-226h250v-65h-250v-251h313v-64h-386v315h-167l-167 -315h-77l364 673l109 -3h320v-64h-309zM424 606l-118 -226h130v226h-12z" unicode="Æ" horiz-adv-x="897"/>
<glyph glyph-name="Ccedilla" d="M260 -168v-27q51 -13 99 9.5t53 66.5q3 26 -12.5 50t-51.5 29v30q100 1 202 55l-20 55q-38 -18 -89.5 -31.5t-85.5 -13.5q-215 0 -215 275q0 133 48.5 209t167.5 76q91 0 160 -30l25 60q-76 35 -190 35q-82 0 -139.5 -27t-88.5 -77t-44.5 -109.5t-13.5 -136.5 q0 -139 55.5 -230t177.5 -107v-58q30 0 44.5 -15t10.5 -35q-9 -44 -93 -53z" unicode="Ç" horiz-adv-x="605"/>
<glyph glyph-name="Egrave" d="M344 771l-39 -37l-152 117l48 57zM168 380v226h309v64h-382v-670h386v64h-313v251h250v65h-250z" unicode="È" horiz-adv-x="556"/>
<glyph glyph-name="Eacute" d="M234 771l39 -37l152 117l-48 57zM168 380v226h309v64h-382v-670h386v64h-313v251h250v65h-250z" unicode="É" horiz-adv-x="556"/>
<glyph glyph-name="Ecircumflex" d="M275 870l-122 -115l55 -25l95 80l95 -80l55 25l-122 115h-56zM168 380v226h309v64h-382v-670h386v64h-313v251h250v65h-250z" unicode="Ê" horiz-adv-x="556"/>
<glyph glyph-name="Edieresis" d="M153 806q0 22 14.5 36.5t36.5 14.5t36.5 -14.5t14.5 -36.5t-14.5 -36.5t-36.5 -14.5t-36.5 14.5t-14.5 36.5zM343 806q0 22 14.5 36.5t36.5 14.5t36.5 -14.5t14.5 -36.5t-14.5 -36.5t-36.5 -14.5t-36.5 14.5t-14.5 36.5zM168 380v226h309v64h-382v-670h386v64h-313v251 h250v65h-250z" unicode="Ë" horiz-adv-x="556"/>
<glyph glyph-name="Igrave" d="M171 771l-39 -37l-152 117l48 57zM106 670h73v-670h-73v670z" unicode="Ì" horiz-adv-x="274"/>
<glyph glyph-name="Iacute" d="M95 771l39 -37l152 117l-48 57zM103 670h73v-670h-73v670z" unicode="Í" horiz-adv-x="276"/>
<glyph glyph-name="Icircumflex" d="M112 870l-122 -115l55 -25l95 80l95 -80l55 25l-122 115h-56zM103 670h73v-670h-73v670z" unicode="Î" horiz-adv-x="280"/>
<glyph glyph-name="Idieresis" d="M0 806q0 22 14.5 36.5t36.5 14.5t36.5 -14.5t14.5 -36.5t-14.5 -36.5t-36.5 -14.5t-36.5 14.5t-14.5 36.5zM190 806q0 22 14.5 36.5t36.5 14.5t36.5 -14.5t14.5 -36.5t-14.5 -36.5t-36.5 -14.5t-36.5 14.5t-14.5 36.5zM108 670h73v-670h-73v670z" unicode="Ï" horiz-adv-x="292"/>
<glyph glyph-name="Eth" d="M95 670v-302h-95v-63h95v-305h174q166 0 253.5 85t87.5 250q0 155 -78.5 245t-242.5 90h-194zM256 305v63h-88v237h100q139 0 203 -68t64 -202q0 -137 -67 -203.5t-205 -66.5h-95v240h88z" unicode="Ð" horiz-adv-x="675"/>
<glyph glyph-name="Ntilde" d="M182 785l35 -30q33 40 60 40q23 0 70 -25t75 -25q29 0 58 19t47 51l-35 30q-32 -40 -60 -40q-22 0 -72 25t-78 25q-27 0 -55 -20t-45 -50zM530 670h73v-670h-85l-350 550v-550h-73v670h85l350 -550v550z" unicode="Ñ" horiz-adv-x="698"/>
<glyph glyph-name="Ograve" d="M397 771l-39 -37l-152 117l48 57zM350 55q-117 0 -163.5 69.5t-46.5 200.5q0 140 51.5 215t168.5 75t163.5 -67.5t46.5 -197.5q0 -143 -51 -219t-169 -76zM365 680q-161 0 -230.5 -88t-69.5 -267q0 -171 68.5 -253t206.5 -82q160 0 232.5 91t72.5 269q0 170 -70 250 t-210 80z" unicode="Ò" horiz-adv-x="710"/>
<glyph glyph-name="Oacute" d="M283 771l39 -37l152 117l-48 57zM350 55q-117 0 -163.5 69.5t-46.5 200.5q0 140 51.5 215t168.5 75t163.5 -67.5t46.5 -197.5q0 -143 -51 -219t-169 -76zM365 680q-161 0 -230.5 -88t-69.5 -267q0 -171 68.5 -253t206.5 -82q160 0 232.5 91t72.5 269q0 170 -70 250 t-210 80z" unicode="Ó" horiz-adv-x="710"/>
<glyph glyph-name="Ocircumflex" d="M323 870l-122 -115l55 -25l95 80l95 -80l55 25l-122 115h-56zM350 55q-117 0 -163.5 69.5t-46.5 200.5q0 140 51.5 215t168.5 75t163.5 -67.5t46.5 -197.5q0 -143 -51 -219t-169 -76zM365 680q-161 0 -230.5 -88t-69.5 -267q0 -171 68.5 -253t206.5 -82q160 0 232.5 91 t72.5 269q0 170 -70 250t-210 80z" unicode="Ô" horiz-adv-x="710"/>
<glyph glyph-name="Otilde" d="M193 785l35 -30q33 40 60 40q23 0 70 -25t75 -25q29 0 58 19t47 51l-35 30q-32 -40 -60 -40q-21 0 -72 25t-78 25t-55 -20t-45 -50zM350 55q-117 0 -163.5 69.5t-46.5 200.5q0 140 51.5 215t168.5 75t163.5 -67.5t46.5 -197.5q0 -143 -51 -219t-169 -76zM365 680 q-161 0 -230.5 -88t-69.5 -267q0 -171 68.5 -253t206.5 -82q160 0 232.5 91t72.5 269q0 170 -70 250t-210 80z" unicode="Õ" horiz-adv-x="710"/>
<glyph glyph-name="Odieresis" d="M211 806q0 22 14.5 36.5t36.5 14.5t36.5 -14.5t14.5 -36.5t-14.5 -36.5t-36.5 -14.5t-36.5 14.5t-14.5 36.5zM401 806q0 22 14.5 36.5t36.5 14.5t36.5 -14.5t14.5 -36.5t-14.5 -36.5t-36.5 -14.5t-36.5 14.5t-14.5 36.5zM350 55q-117 0 -163.5 69.5t-46.5 200.5 q0 140 51.5 215t168.5 75t163.5 -67.5t46.5 -197.5q0 -143 -51 -219t-169 -76zM365 680q-161 0 -230.5 -88t-69.5 -267q0 -171 68.5 -253t206.5 -82q160 0 232.5 91t72.5 269q0 170 -70 250t-210 80z" unicode="Ö" horiz-adv-x="710"/>
<glyph glyph-name="multiply" d="M289 297l142 -142l-44 -44l-142 142l-138 -139l-44 44l138 139l-141 141l44 44l141 -141l139 138l44 -44z" unicode="×" horiz-adv-x="491"/>
<glyph glyph-name="Oslash" d="M365 680q-161 0 -230.5 -88t-69.5 -267q0 -171 68.5 -253t206.5 -82q160 0 232.5 91t72.5 269q0 170 -70 250t-210 80zM360 615q36 0 68 -8l-199 -523q-89 56 -89 241q0 140 51.5 215t168.5 75zM350 55q-35 0 -64 6l197 524q87 -55 87 -235q0 -143 -51 -219t-169 -76z " unicode="Ø" horiz-adv-x="710"/>
<glyph glyph-name="Ugrave" d="M368 771l-39 -37l-152 117l48 57zM339 -10q-120 0 -187 68.5t-67 191.5v420h74v-420q0 -196 180 -196t180 196v420h74v-420q0 -123 -67 -191.5t-187 -68.5z" unicode="Ù" horiz-adv-x="678"/>
<glyph glyph-name="Uacute" d="M314 771l39 -37l152 117l-48 57zM339 -10q-120 0 -187 68.5t-67 191.5v420h74v-420q0 -196 180 -196t180 196v420h74v-420q0 -123 -67 -191.5t-187 -68.5z" unicode="Ú" horiz-adv-x="678"/>
<glyph glyph-name="Ucircumflex" d="M314 870l-122 -115l55 -25l95 80l95 -80l55 25l-122 115h-56zM339 -10q-120 0 -187 68.5t-67 191.5v420h74v-420q0 -196 180 -196t180 196v420h74v-420q0 -123 -67 -191.5t-187 -68.5z" unicode="Û" horiz-adv-x="678"/>
<glyph glyph-name="Udieresis" d="M196 806q0 22 14.5 36.5t36.5 14.5t36.5 -14.5t14.5 -36.5t-14.5 -36.5t-36.5 -14.5t-36.5 14.5t-14.5 36.5zM386 806q0 22 14.5 36.5t36.5 14.5t36.5 -14.5t14.5 -36.5t-14.5 -36.5t-36.5 -14.5t-36.5 14.5t-14.5 36.5zM339 -10q-120 0 -187 68.5t-67 191.5v420h74v-420 q0 -196 180 -196t180 196v420h74v-420q0 -123 -67 -191.5t-187 -68.5z" unicode="Ü" horiz-adv-x="678"/>
<glyph glyph-name="Yacute" d="M265 771l39 -37l152 117l-48 57zM105 670h-85l227 -417v-253h73v253l229 417h-80l-184 -343z" unicode="Ý" horiz-adv-x="569"/>
<glyph glyph-name="Thorn" d="M168 200h122q74 0 117 38t43 102q0 74 -44 104.5t-126 30.5h-112v-275zM168 135v-135h-73v670h73v-130h132q111 0 168 -52.5t57 -147.5q0 -105 -67.5 -155t-167.5 -50h-122z" unicode="Þ" horiz-adv-x="575"/>
<glyph glyph-name="germandbls" d="M530 144q0 -73 -54.5 -113.5t-125.5 -40.5q-94 0 -134 33l19 48q43 -28 105 -28q57 0 86 29.5t29 76.5q0 33 -17 57.5t-41.5 39t-49 27.5t-41.5 30.5t-17 40.5q0 26 19 49.5t41.5 39t41.5 43t19 60.5q0 41 -36 66t-79 25q-77 0 -106 -50t-29 -137v-440h-70v446 q0 115 46.5 174.5t158.5 59.5q82 0 133.5 -36t51.5 -108q0 -36 -18 -64.5t-39.5 -43.5t-39.5 -34.5t-18 -39.5q0 -17 26 -34t56.5 -32.5t56.5 -53t26 -90.5z" unicode="ß" horiz-adv-x="590"/>
<glyph glyph-name="agrave" d="M370 205v-135q-96 -20 -170 -20q-42 0 -61 18.5t-19 61.5q0 75 90 75h160zM220 265q-86 0 -128 -31.5t-42 -106.5q0 -137 154 -137q94 0 161 45h5q5 -45 50 -45q38 0 85 20v45h-65v295q0 160 -175 160q-100 0 -175 -30l15 -55q83 25 145 25q120 0 120 -110v-90h-3 q-71 15 -147 15zM305 621l-39 -37l-152 117l48 57z" unicode="à" horiz-adv-x="545"/>
<glyph glyph-name="aacute" d="M370 205v-135q-96 -20 -170 -20q-42 0 -61 18.5t-19 61.5q0 75 90 75h160zM220 265q-86 0 -128 -31.5t-42 -106.5q0 -137 154 -137q94 0 161 45h5q5 -45 50 -45q38 0 85 20v45h-65v295q0 160 -175 160q-100 0 -175 -30l15 -55q83 25 145 25q120 0 120 -110v-90h-3 q-71 15 -147 15zM218 621l39 -37l152 117l-48 57z" unicode="á" horiz-adv-x="545"/>
<glyph glyph-name="acircumflex" d="M370 205v-135q-96 -20 -170 -20q-42 0 -61 18.5t-19 61.5q0 75 90 75h160zM220 265q-86 0 -128 -31.5t-42 -106.5q0 -137 154 -137q94 0 161 45h5q5 -45 50 -45q38 0 85 20v45h-65v295q0 160 -175 160q-100 0 -175 -30l15 -55q83 25 145 25q120 0 120 -110v-90h-3 q-71 15 -147 15zM241 723l-122 -115l55 -25l95 80l95 -80l55 25l-122 115h-56z" unicode="â" horiz-adv-x="545"/>
<glyph glyph-name="atilde" d="M370 205v-135q-96 -20 -170 -20q-42 0 -61 18.5t-19 61.5q0 75 90 75h160zM220 265q-86 0 -128 -31.5t-42 -106.5q0 -137 154 -137q94 0 161 45h5q5 -45 50 -45q38 0 85 20v45h-65v295q0 160 -175 160q-100 0 -175 -30l15 -55q83 25 145 25q120 0 120 -110v-90h-3 q-71 15 -147 15zM98 620l35 -30q33 40 60 40q23 0 70 -25t75 -25q29 0 58 19t47 51l-35 30q-32 -40 -60 -40q-22 0 -72 25t-78 25q-27 0 -55 -20t-45 -50z" unicode="ã" horiz-adv-x="545"/>
<glyph glyph-name="adieresis" d="M370 205v-135q-96 -20 -170 -20q-42 0 -61 18.5t-19 61.5q0 75 90 75h160zM220 265q-86 0 -128 -31.5t-42 -106.5q0 -137 154 -137q94 0 161 45h5q5 -45 50 -45q38 0 85 20v45h-65v295q0 160 -175 160q-100 0 -175 -30l15 -55q83 25 145 25q120 0 120 -110v-90h-3 q-71 15 -147 15zM117 633q0 22 14.5 36.5t36.5 14.5t36.5 -14.5t14.5 -36.5t-14.5 -36.5t-36.5 -14.5t-36.5 14.5t-14.5 36.5zM307 633q0 22 14.5 36.5t36.5 14.5t36.5 -14.5t14.5 -36.5t-14.5 -36.5t-36.5 -14.5t-36.5 14.5t-14.5 36.5z" unicode="ä" horiz-adv-x="545"/>
<glyph glyph-name="aring" d="M370 205v-135q-96 -20 -170 -20q-42 0 -61 18.5t-19 61.5q0 75 90 75h160zM220 265q-86 0 -128 -31.5t-42 -106.5q0 -137 154 -137q94 0 161 45h5q5 -45 50 -45q38 0 85 20v45h-65v295q0 160 -175 160q-100 0 -175 -30l15 -55q83 25 145 25q120 0 120 -110v-90h-3 q-71 15 -147 15zM211 683q0 -24 16.5 -40.5t40.5 -16.5t40.5 16.5t16.5 40.5t-16.5 40.5t-40.5 16.5t-40.5 -16.5t-16.5 -40.5zM167 683q0 43 29 72t72 29t72 -29t29 -72t-29 -72t-72 -29t-72 29t-29 72z" unicode="å" horiz-adv-x="545"/>
<glyph glyph-name="ae" d="M746 75q-67 -25 -145 -25q-82 0 -121 38t-39 147h340q5 22 5 49q0 106 -49.5 166t-150.5 60q-105 0 -166 -80q-44 80 -155 80q-100 0 -175 -30l15 -55q83 25 145 25q120 0 120 -110v-50h-150q-170 0 -170 -148q0 -74 43.5 -113t110.5 -39q133 0 219 61q53 -61 178 -61 q93 0 160 30q-1 3 -2.5 9t-5 18t-5.5 20zM120 145q0 90 90 90h161q1 -88 26 -142q-82 -43 -187 -43q-90 0 -90 95zM586 450q64 0 95 -37.5t35 -122.5h-276q6 160 146 160z" unicode="æ" horiz-adv-x="831"/>
<glyph glyph-name="ccedilla" d="M190 -168v-27q51 -13 99 9.5t53 66.5q3 26 -12.5 50t-51.5 29v30q109 4 162 30l-15 55q-67 -25 -150 -25q-84 0 -112 46.5t-28 143.5q0 105 31.5 157.5t113.5 52.5q80 0 150 -30l15 55q-56 35 -160 35q-123 0 -174 -66.5t-51 -203.5q0 -119 40.5 -178.5t127.5 -69.5v-57 q30 0 44.5 -15t10.5 -35q-9 -44 -93 -53z" unicode="ç" horiz-adv-x="495"/>
<glyph glyph-name="egrave" d="M435 75l3 -13l8 -28l4 -14q-68 -30 -160 -30q-118 0 -174 58t-56 202q0 127 55 193.5t160 66.5q200 0 200 -216q0 -26 -5 -49h-340q0 -110 40 -152.5t120 -42.5q78 0 145 25zM275 450q-125 0 -143 -145h273q-8 145 -130 145zM336 621l-39 -37l-152 117l48 57z" unicode="è" horiz-adv-x="540"/>
<glyph glyph-name="eacute" d="M435 75l3 -13l8 -28l4 -14q-68 -30 -160 -30q-118 0 -174 58t-56 202q0 127 55 193.5t160 66.5q200 0 200 -216q0 -26 -5 -49h-340q0 -110 40 -152.5t120 -42.5q78 0 145 25zM275 450q-125 0 -143 -145h273q-8 145 -130 145zM229 621l39 -37l152 117l-48 57z" unicode="é" horiz-adv-x="540"/>
<glyph glyph-name="ecircumflex" d="M435 75l3 -13l8 -28l4 -14q-68 -30 -160 -30q-118 0 -174 58t-56 202q0 127 55 193.5t160 66.5q200 0 200 -216q0 -26 -5 -49h-340q0 -110 40 -152.5t120 -42.5q78 0 145 25zM275 450q-125 0 -143 -145h273q-8 145 -130 145zM248 723l-122 -115l55 -25l95 80l95 -80 l55 25l-122 115h-56z" unicode="ê" horiz-adv-x="540"/>
<glyph glyph-name="edieresis" d="M435 75l3 -13l8 -28l4 -14q-68 -30 -160 -30q-118 0 -174 58t-56 202q0 127 55 193.5t160 66.5q200 0 200 -216q0 -26 -5 -49h-340q0 -110 40 -152.5t120 -42.5q78 0 145 25zM275 450q-125 0 -143 -145h273q-8 145 -130 145zM133 633q0 22 14.5 36.5t36.5 14.5 t36.5 -14.5t14.5 -36.5t-14.5 -36.5t-36.5 -14.5t-36.5 14.5t-14.5 36.5zM323 633q0 22 14.5 36.5t36.5 14.5t36.5 -14.5t14.5 -36.5t-14.5 -36.5t-36.5 -14.5t-36.5 14.5t-14.5 36.5z" unicode="ë" horiz-adv-x="540"/>
<glyph glyph-name="igrave" d="M178 500v-500h-70v500h70zM201 621l-39 -37l-152 117l48 57z" unicode="ì" horiz-adv-x="281"/>
<glyph glyph-name="iacute" d="M170 500v-500h-70v500h70zM100 621l39 -37l152 117l-48 57z" unicode="í" horiz-adv-x="271"/>
<glyph glyph-name="icircumflex" d="M112 723l-122 -115l55 -25l95 80l95 -80l55 25l-122 115h-56zM173 500v-500h-70v500h70z" unicode="î" horiz-adv-x="280"/>
<glyph glyph-name="idieresis" d="M176 500v-500h-70v500h70zM-4 633q0 22 14.5 36.5t36.5 14.5t36.5 -14.5t14.5 -36.5t-14.5 -36.5t-36.5 -14.5t-36.5 14.5t-14.5 36.5zM186 633q0 22 14.5 36.5t36.5 14.5t36.5 -14.5t14.5 -36.5t-14.5 -36.5t-36.5 -14.5t-36.5 14.5t-14.5 36.5z" unicode="ï" horiz-adv-x="284"/>
<glyph glyph-name="eth" d="M443 683l-44 44l-70 -70q-86 43 -214 43v-65q94 -3 160 -32l-57 -57l44 -44l70 70q92 -68 103 -212q-66 60 -165 60q-94 0 -152 -56t-58 -149q0 -102 64 -163.5t171 -61.5q110 0 167.5 74t57.5 186q0 265 -137 373zM440 290q24 -235 -155 -235q-76 0 -113 40.5t-37 114.5 q0 70 38.5 107.5t106.5 37.5q102 0 160 -65z" unicode="ð" horiz-adv-x="580"/>
<glyph glyph-name="ntilde" d="M317 450q-77 0 -152 -35v-415h-70v500h70v-40h5q79 50 162 50q163 0 163 -172v-338h-70v308q0 142 -108 142zM124 620l35 -30q33 40 60 40q23 0 70 -25t75 -25q29 0 58 19t47 51l-35 30q-32 -40 -60 -40q-22 0 -72 25t-78 25q-27 0 -55 -20t-45 -50z" unicode="ñ" horiz-adv-x="585"/>
<glyph glyph-name="ograve" d="M275 45q-84 0 -114.5 49.5t-30.5 145.5q0 105 35 160t120 55q84 0 114.5 -49.5t30.5 -145.5q0 -105 -35 -160t-120 -55zM290 510q-124 0 -177 -67t-53 -203q0 -130 52 -190t158 -60q124 0 177 67t53 203q0 130 -52 190t-158 60zM323 621l-39 -37l-152 117l48 57z" unicode="ò"/>
<glyph glyph-name="oacute" d="M275 45q-84 0 -114.5 49.5t-30.5 145.5q0 105 35 160t120 55q84 0 114.5 -49.5t30.5 -145.5q0 -105 -35 -160t-120 -55zM290 510q-124 0 -177 -67t-53 -203q0 -130 52 -190t158 -60q124 0 177 67t53 203q0 130 -52 190t-158 60zM229 621l39 -37l152 117l-48 57z" unicode="ó"/>
<glyph glyph-name="ocircumflex" d="M275 45q-84 0 -114.5 49.5t-30.5 145.5q0 105 35 160t120 55q84 0 114.5 -49.5t30.5 -145.5q0 -105 -35 -160t-120 -55zM290 510q-124 0 -177 -67t-53 -203q0 -130 52 -190t158 -60q124 0 177 67t53 203q0 130 -52 190t-158 60zM251 723l-122 -115l55 -25l95 80l95 -80 l55 25l-122 115h-56z" unicode="ô"/>
<glyph glyph-name="otilde" d="M275 45q-84 0 -114.5 49.5t-30.5 145.5q0 105 35 160t120 55q84 0 114.5 -49.5t30.5 -145.5q0 -105 -35 -160t-120 -55zM290 510q-124 0 -177 -67t-53 -203q0 -130 52 -190t158 -60q124 0 177 67t53 203q0 130 -52 190t-158 60zM113 620l35 -30q33 40 60 40q23 0 70 -25 t75 -25q29 0 58 19t47 51l-35 30q-32 -40 -60 -40q-22 0 -72 25t-78 25q-27 0 -55 -20t-45 -50z" unicode="õ"/>
<glyph glyph-name="odieresis" d="M275 45q-84 0 -114.5 49.5t-30.5 145.5q0 105 35 160t120 55q84 0 114.5 -49.5t30.5 -145.5q0 -105 -35 -160t-120 -55zM290 510q-124 0 -177 -67t-53 -203q0 -130 52 -190t158 -60q124 0 177 67t53 203q0 130 -52 190t-158 60zM139 633q0 22 14.5 36.5t36.5 14.5 t36.5 -14.5t14.5 -36.5t-14.5 -36.5t-36.5 -14.5t-36.5 14.5t-14.5 36.5zM329 633q0 22 14.5 36.5t36.5 14.5t36.5 -14.5t14.5 -36.5t-14.5 -36.5t-36.5 -14.5t-36.5 14.5t-14.5 36.5z" unicode="ö"/>
<glyph glyph-name="divide" d="M60 327h463v-62h-463v62zM240 133q0 22 15 37t37 15t37 -15t15 -37t-15 -37t-37 -15t-37 15t-15 37zM240 459q0 22 15 37t37 15t37 -15t15 -37t-15 -37t-37 -15t-37 15t-15 37z" unicode="÷" horiz-adv-x="583"/>
<glyph glyph-name="oslash" d="M290 510q-124 0 -177 -67t-53 -203q0 -130 52 -190t158 -60q124 0 177 67t53 203q0 130 -52 190t-158 60zM275 45q-26 0 -43 4l143 381q55 -40 55 -170q0 -105 -35 -160t-120 -55zM285 455q15 0 39 -4l-144 -378q-50 41 -50 167q0 105 35 160t120 55z" unicode="ø"/>
<glyph glyph-name="ugrave" d="M270 50q75 0 150 35v415h70v-500h-70v40h-5q-79 -50 -160 -50q-165 0 -165 172v338h70v-308q0 -142 110 -142zM339 621l-39 -37l-152 117l48 57z" unicode="ù" horiz-adv-x="585"/>
<glyph glyph-name="uacute" d="M270 50q75 0 150 35v415h70v-500h-70v40h-5q-79 -50 -160 -50q-165 0 -165 172v338h70v-308q0 -142 110 -142zM254 621l39 -37l152 117l-48 57z" unicode="ú" horiz-adv-x="585"/>
<glyph glyph-name="ucircumflex" d="M270 50q75 0 150 35v415h70v-500h-70v40h-5q-79 -50 -160 -50q-165 0 -165 172v338h70v-308q0 -142 110 -142zM265 723l-122 -115l55 -25l95 80l95 -80l55 25l-122 115h-56z" unicode="û" horiz-adv-x="585"/>
<glyph glyph-name="udieresis" d="M270 50q75 0 150 35v415h70v-500h-70v40h-5q-79 -50 -160 -50q-165 0 -165 172v338h70v-308q0 -142 110 -142zM145 633q0 22 14.5 36.5t36.5 14.5t36.5 -14.5t14.5 -36.5t-14.5 -36.5t-36.5 -14.5t-36.5 14.5t-14.5 36.5zM335 633q0 22 14.5 36.5t36.5 14.5t36.5 -14.5 t14.5 -36.5t-14.5 -36.5t-36.5 -14.5t-36.5 14.5t-14.5 36.5z" unicode="ü" horiz-adv-x="585"/>
<glyph glyph-name="yacute" d="M204 10h46q-1 -5 -3.5 -14t-12 -32.5t-22.5 -43t-36 -38.5t-51 -26q-32 -8 -82 1l-8 -54q32 -8 60 -8q86 -2 143 57.5t97 202.5l125 445h-75l-117 -430h-10l-158 430h-80zM199 621l39 -37l152 117l-48 57z" unicode="ý" horiz-adv-x="480"/>
<glyph glyph-name="thorn" d="M168 710v-245h5q71 45 150 45q101 0 148 -70.5t47 -179.5q0 -122 -53 -196t-166 -74q-73 0 -128 30l-3 -2v-218h-73v900zM298 450q-19 0 -34 -1t-29.5 -3.5t-21.5 -4t-23 -6t-22 -5.5v-370q68 -15 120 -15q155 0 155 210q0 40 -5 69.5t-18.5 60.5t-44.5 48t-77 17z" unicode="þ" horiz-adv-x="578"/>
<glyph glyph-name="circumflex" d="M202 723l-122 -115l55 -25l95 80l95 -80l55 25l-122 115h-56z" unicode="ˆ" horiz-adv-x="460"/>
<glyph glyph-name="ring" d="M114 683q0 -24 16.5 -40.5t40.5 -16.5t40.5 16.5t16.5 40.5t-16.5 40.5t-40.5 16.5t-40.5 -16.5t-16.5 -40.5zM70 683q0 43 29 72t72 29t72 -29t29 -72t-29 -72t-72 -29t-72 29t-29 72z" unicode="˚" horiz-adv-x="344"/>
<glyph glyph-name="tilde" d="M70 620l35 -30q33 40 60 40q23 0 70 -25t75 -25q29 0 58 19t47 51l-35 30q-32 -40 -60 -40q-22 0 -72 25t-78 25q-27 0 -55 -20t-45 -50z" unicode="˜" horiz-adv-x="485"/>
</font>
</defs>
</svg>
