<?xml version="1.0" encoding="utf-8"?>
<!-- Generator: Adobe Illustrator 21.1.0, SVG Export Plug-In . SVG Version: 6.00 Build 0)  -->
<svg version="1.1" id="Layer_1" xmlns="http://www.w3.org/2000/svg" xmlns:xlink="http://www.w3.org/1999/xlink" x="0px" y="0px"
	 viewBox="0 0 256 92.7" style="enable-background:new 0 0 256 92.7;" xml:space="preserve">
<style type="text/css">
	.st0{fill:#191919;}
</style>
<title>Asset 1</title>
<g>
	<path d="M98.9,29.7v32.8h-4.2V29.7H98.9z"/>
	<path d="M106.6,45.3c0-2.4,0-4.4-0.2-6.4h3.8l0.2,3.9h0.1c1.2-2.2,3.9-4.4,7.8-4.4c3.3,0,8.3,1.9,8.3,10v14.1h-4.3V48.9
		c0-3.8-1.4-7-5.5-7c-2.8,0-5,2-5.7,4.4c-0.2,0.5-0.3,1.3-0.3,2v14.2h-4.3V45.3z"/>
	<path d="M138.6,32.2v6.8h6.1v3.3h-6.1v12.7c0,2.9,0.8,4.6,3.2,4.6c1.1,0,1.9-0.1,2.5-0.3l0.2,3.2c-0.8,0.3-2.1,0.6-3.8,0.6
		c-2,0-3.6-0.6-4.6-1.8c-1.2-1.3-1.7-3.4-1.7-6.1V42.2h-3.7v-3.3h3.7v-5.6L138.6,32.2z"/>
	<path d="M149.6,46.3c0-2.8,0-5.2-0.2-7.4h3.8l0.1,4.6h0.2c1.1-3.2,3.7-5.2,6.5-5.2c0.5,0,0.8,0,1.2,0.1v4c-0.4-0.1-0.9-0.1-1.5-0.1
		c-3,0-5.2,2.3-5.7,5.5c-0.1,0.6-0.2,1.3-0.2,2v12.6h-4.2V46.3z"/>
	<path d="M178.3,62.5l-0.3-3h-0.1c-1.3,1.9-3.8,3.5-7.2,3.5c-4.8,0-7.2-3.4-7.2-6.8c0-5.7,5.1-8.8,14.2-8.8V47
		c0-1.9-0.5-5.5-5.4-5.5c-2.2,0-4.5,0.7-6.1,1.8l-1-2.8c1.9-1.3,4.8-2.1,7.7-2.1c7.2,0,9,4.9,9,9.6v8.8c0,2,0.1,4,0.4,5.6H178.3z
		 M177.7,50.5c-4.7-0.1-10,0.7-10,5.3c0,2.8,1.9,4.1,4,4.1c3.1,0,5-1.9,5.7-3.9c0.1-0.4,0.2-0.9,0.2-1.4V50.5z"/>
	<path d="M188.7,45.3c0-2.4,0-4.4-0.2-6.4h3.8l0.2,3.9h0.1c1.2-2.2,3.9-4.4,7.8-4.4c3.3,0,8.3,1.9,8.3,10v14.1h-4.3V48.9
		c0-3.8-1.4-7-5.5-7c-2.8,0-5,2-5.7,4.4c-0.2,0.5-0.3,1.3-0.3,2v14.2h-4.3V45.3z"/>
	<path d="M218.1,51.5c0.1,5.8,3.8,8.2,8.1,8.2c3.1,0,4.9-0.5,6.5-1.2l0.7,3.1c-1.5,0.7-4.1,1.5-7.8,1.5c-7.3,0-11.6-4.8-11.6-11.9
		c0-7.1,4.2-12.7,11.1-12.7c7.7,0,9.7,6.8,9.7,11.1c0,0.9-0.1,1.6-0.1,2H218.1z M230.7,48.4c0-2.7-1.1-7-5.9-7c-4.3,0-6.2,4-6.6,7
		H230.7z"/>
	<path d="M245.3,32.2v6.8h6.1v3.3h-6.1v12.7c0,2.9,0.8,4.6,3.2,4.6c1.1,0,1.9-0.1,2.5-0.3l0.2,3.2c-0.8,0.3-2.1,0.6-3.8,0.6
		c-2,0-3.6-0.6-4.6-1.8c-1.2-1.3-1.7-3.4-1.7-6.1V42.2h-3.7v-3.3h3.7v-5.6L245.3,32.2z"/>
</g>
<path class="st0" d="M59.6,32.7c-0.9-0.1-1.8,0.6-1.8,1.6c0,0,0,0.1,0,0.1v23.5c0,0.9,0.8,1.7,1.7,1.7c0,0,0.1,0,0.1,0
	c0.9,0.1,1.7-0.6,1.8-1.5c0-0.1,0-0.1,0-0.2V34.4c0-0.9-0.7-1.7-1.6-1.7C59.7,32.7,59.7,32.7,59.6,32.7"/>
<path class="st0" d="M69.1,57.5c0,5.4-4.2,9.1-9.5,9.1s-9.5-3.7-9.5-9.1V34.9c0-5.4,4.2-9,9.5-9s9.5,3.6,9.5,9V57.5z M48.7,65.9
	h-4.4l-0.8-2.7c-1,2.1-3.2,3.4-5.5,3.4c-5.1,0-8.4-3.7-8.4-8.8V34.8c0-4.6,3.9-8.8,9.5-8.8s9.3,4.1,9.3,8.8v6.5h-7.1v-6.6
	c0-1.1-0.7-1.8-2-1.8c-1.3,0-1.9,0.7-1.9,1.8v23.5c0.1,1.1,1,2,2.1,1.9c1-0.1,1.9-0.9,1.9-1.9v-6.4h-2v-5.3h9.3V65.9z M28.2,33.4
	h-8.1v9.4h5.5v6.1h-5.5V59h8.1v6.9H12.6V26.7h15.6V33.4z M40.9,6.2c-22.2,0-40.1,18-40.1,40.1s18,40.1,40.1,40.1S81,68.5,81,46.4
	c0,0,0,0,0,0C81,24.2,63,6.2,40.9,6.2"/>
</svg>
