<svg id="Layer_1" data-name="Layer 1" xmlns="http://www.w3.org/2000/svg" viewBox="0 0 164.73 164.73"><defs><style>.cls-1{fill:#191919;}</style></defs><title>logoEGO</title><path class="cls-1" d="M120.87,54.37a3.49,3.49,0,0,0-3.74,3.5v48.29a3.49,3.49,0,0,0,3.74,3.5,3.39,3.39,0,0,0,3.62-3.5V57.87a3.39,3.39,0,0,0-3.62-3.5"/><path class="cls-1" d="M140.3,105.19c0,11-8.57,18.59-19.44,18.59s-19.56-7.6-19.56-18.59V58.83c0-11,8.57-18.47,19.56-18.47s19.44,7.49,19.44,18.47ZM98.52,122.51H89.59L88,117.07a12.64,12.64,0,0,1-11.35,7c-10.51,0-17.15-7.6-17.15-18.11V58.65c0-9.53,8-18,19.44-18s19,8.45,19,18V71.92H83.31V58.4c0-2.3-1.45-3.74-4.11-3.74s-4,1.45-4,3.74v48.17a4.17,4.17,0,0,0,8.33,0V93.41h-4.1V82.55H98.52ZM56.37,55.75H39.76V74.94H51.11V87.49H39.76v20.89H56.37v14.12H24.31V42.11H56.37ZM82.36,0a82.37,82.37,0,1,0,82.36,82.36A82.36,82.36,0,0,0,82.36,0"/></svg>